/* XPM */
static char *player1_l[] = {
/* columns rows colors chars-per-pixel */
"64 64 11 1 ",
"  c black",
". c gray8",
"X c gray14",
"o c gray16",
"O c #2D2D2D",
"+ c #383737",
"@ c #414141",
"# c #4B4C4F",
"$ c #585858",
"% c gray43",
"& c white",
/* pixels */
"$$$$%%%%%%%%%%%%%%%%%%%%%%%%%%%%%%%%%%%%%%%%%%%%$$$$$$$$@@@@XXXX",
"$$$$%%%%%%%%%%%%%%%%%%%%%%%%%%%%%%%%%%%%%%%%%%%%$$$$$$$$@@@@XXXX",
"$$$$%%%%%%%%%%%%%%%%%%%%%%%%%%%%%%%%%%%%%%%%%%%%$$$$$$$$@@@@XXXX",
"$$$$%%%%%%%%%%%%%%%%%%%%%%%%%%%%%%%%%%%%%%%%%%%%$$$$$$$$@@@@XXXX",
"%%%%$$$$$$$$$$$$$$$$$$$$$$$$$$$$####$$$$$$$$$$$$$$$$@@@@++++XXXX",
"%%%%$$$$$$$$$$$$$$$$$$$$$$$$$$$$####$$$$$$$$$$$$$$$$@@@@++++XXXX",
"%%%%$$$$$$$$$$$$$$$$$$$$$$$$$$$$####$$$$$$$$$$$$$$$$@@@@++++XXXX",
"%%%%$$$$$$$$$$$$$$$$$$$$$$$$$$$$####$$$$$$$$$$$$$$$$@@@@++++XXXX",
"%%%%$$$$$$$$$$$$$$$$########$$$$$$$$$$$$$$$$$$$$####@@@@@@@@XXXX",
"%%%%$$$$$$$$$$$$$$$$########$$$$$$$$$$$$$$$$$$$$####@@@@@@@@XXXX",
"%%%%$$$$$$$$$$$$$$$$######        $$$$$$$$$$$$$$####@@@@@@@@XXXX",
"%%%%$$$$$$$$$$$$$$$$######        $$$$$$$$$$$$$$####@@@@@@@@XXXX",
"%%%%@@@@####$$$$####                    ####$$$$@@@@####@@@@XXXX",
"%%%%@@@@####$$$$####                    ####$$$$@@@@####@@@@XXXX",
"%%%%@@@@####$$$$                            $$$$@@@@####@@@@XXXX",
"%%%%@@@@####$$$$                            $$$$@@@@####@@@@XXXX",
"%%%%++++$$$$                                    ####++++@@@@XXXX",
"%%%%++++$$$$                                    ####++++@@@@XXXX",
"%%%%++++$$$$@@@@++++@@@@  &&        ####@@@@@@@@####++++@@@@XXXX",
"%%%%++++$$$$@@@@++++@@@@  &&        ####@@@@@@@@####++++@@@@XXXX",
"$$$$####++++++++@@@@++++  &&        @@@@++++@@@@@@@@++++OOOOXXXX",
"$$$$####++++++++@@@@++++  &&        @@@@++++@@@@@@@@++++OOOOXXXX",
"$$$$####++++++++@@@@++++            @@@@++++@@@@@@@@++++OOOOXXXX",
"$$$$####++++++++@@@@++++            @@@@++++@@@@@@@@++++OOOOXXXX",
"++++++++++++++++++++++++++          ++++OOOO++++++++OOOO++++XXXX",
"++++++++++++++++++++++++++          ++++OOOO++++++++OOOO++++XXXX",
"++++++++++++++++++++++++++      oooooo++OOOO++++++++OOOO++++XXXX",
"++++++++++++++++++++++++++      oooooo++OOOO++++++++OOOO++++XXXX",
"OOOOOOOOXXXXXXXXOOOOOOOOoo      ooooooooOOOOOOOOXXXXXXXXXXXXOOOO",
"OOOOOOOOXXXXXXXXOOOOOOOOoo      ooooooooOOOOOOOOXXXXXXXXXXXXOOOO",
"OOOOOOOOXXXXXXXXOOOOOOOOooooooooooooooooOOOOOOOOXXXXXXXXXXXXOOOO",
"OOOOOOOOXXXXXXXXOOOOOOOOooooooooooooooooOOOOOOOOXXXXXXXXXXXXOOOO",
"%%%%%%%%$$$$$$$$%%%%%%%%oooooooooooooooooo%%%%%%%%%%%%%%%%%%%%%%",
"%%%%%%%%$$$$$$$$%%%%%%%%oooooooooooooooooo%%%%%%%%%%%%%%%%%%%%%%",
"%%%%%%%%$$$$$$$$%%%%%%oo    oooooooooooooo%%%%%%%%%%%%%%%%%%%%%%",
"%%%%%%%%$$$$$$$$%%%%%%oo    oooooooooooooo%%%%%%%%%%%%%%%%%%%%%%",
"$$$$$$$$####$$$$$$$$@@oo    oooooooooooooo$$$$$$$$$$####$$$$$$$$",
"$$$$$$$$####$$$$$$$$@@oo    oooooooooooooo$$$$$$$$$$####$$$$$$$$",
"$$$$$$$$####$$......@@oo      oooooooooooooo$$$$$$$$####$$$$$$$$",
"$$$$$$$$####$$......@@oo      oooooooooooooo$$$$$$$$####$$$$$$$$",
"$$$$########$$......oo        oooooooooooooo$$$$@@@@$$$$$$$$$$$$",
"$$$$########$$......oo        oooooooooooooo$$$$@@@@$$$$$$$$$$$$",
"$$$$########$$$$$$..oo        oooooooooooooo$$$$@@@@$$$$$$$$$$$$",
"$$$$########$$$$$$..oo        oooooooooooooo$$$$@@@@$$$$$$$$$$$$",
"$$$$############$$$$oo          oooooooooooo$$$$####@@@@$$$$$$$$",
"$$$$############$$$$oo          oooooooooooo$$$$####@@@@$$$$$$$$",
"$$$$############$$$$oo          oooooooooooooo$$####@@@@$$$$$$$$",
"$$$$############$$$$oo          oooooooooooooo$$####@@@@$$$$$$$$",
"####++++@@@@@@@@##oo            oooooooooooooo&&&&&&####$$$$$$$$",
"####++++@@@@@@@@##oo            oooooooooooooo&&&&&&####$$$$$$$$",
"####++++@@@@@@@@##oo            oooooooooooooo&&&&&&&&&&$$$$$$$$",
"####++++@@@@@@@@##oo            oooooooooooooo&&&&&&&&&&$$$$$$$$",
"++++++++++++@@@@@@oo              oooooooooooo$$##&&&&&&####@@@@",
"++++++++++++@@@@@@oo              oooooooooooo$$##&&&&&&####@@@@",
"++++++++++++@@@@@@oo              oooooooooooo$$####@@@@####@@@@",
"++++++++++++@@@@@@oo              oooooooooooo$$####@@@@####@@@@",
"++++++++++++++++++oooo      XXXX++oooooooooooo++++++++++++++++++",
"++++++++++++++++++oooo      XXXX++oooooooooooo++++++++++++++++++",
"++++++++++++++++++++++    ++XXXX++++oooooooo++++++++++++++++++++",
"++++++++++++++++++++++    ++XXXX++++oooooooo++++++++++++++++++++",
"OOOOOOOOOOOOOOOOOOOOOO  XXXXXXXXXXXXXXXX  OOOOOOOOOOOOOOOOOOOOOO",
"OOOOOOOOOOOOOOOOOOOOOO  XXXXXXXXXXXXXXXX  OOOOOOOOOOOOOOOOOOOOOO",
"OOOOOOOOOOOOOOOOOOOOOO  XXXXXXXXXXXXXXXX  OOOOOOOOOOOOOOOOOOOOOO",
"OOOOOOOOOOOOOOOOOOOOOO  XXXXXXXXXXXXXXXX  OOOOOOOOOOOOOOOOOOOOOO"
};
