/* XPM */
static char *wall[] = {
/* columns rows colors chars-per-pixel */
"64 64 6 1 ",
"  c #160F10",
". c #23161F",
"X c #27221C",
"o c #312C36",
"O c #3C3947",
"+ c #4E4B54",
/* pixels */
"oooo++++++++    ++++++++OOOO++++++++OOOO++++++++OOOOOOOOoooo    ",
"oooo++++++++    ++++++++OOOO++++++++OOOO++++++++OOOOOOOOoooo    ",
"oooo++++++++    ++++++++OOOO++++++++OOOO++++++++OOOOOOOOoooo    ",
"oooo++++++++    ++++++++OOOO++++++++OOOO++++++++OOOOOOOOoooo    ",
"ooooOOOOoooo....oooo++++OOOOOOOOooooXXXX....ooooooooooooOOOO    ",
"ooooOOOOoooo....oooo++++OOOOOOOOooooXXXX....ooooooooooooOOOO    ",
"ooooOOOOoooo....oooo++++OOOOOOOOooooXXXX....ooooooooooooOOOO    ",
"ooooOOOOoooo....oooo++++OOOOOOOOooooXXXX....ooooooooooooOOOO    ",
"ooooOOOO++++++++........XXXXooooXXXXXXXXoooo....OOOO....OOOO    ",
"ooooOOOO++++++++........XXXXooooXXXXXXXXoooo....OOOO....OOOO    ",
"ooooOOOO++++++++........XXXXooooXXXXXXXXoooo....OOOO....OOOO    ",
"ooooOOOO++++++++........XXXXooooXXXXXXXXoooo....OOOO....OOOO    ",
"OOOO....OOOOoooo++++ooooOOOOOOOOOOOOoooooooo        ....oooo    ",
"OOOO....OOOOoooo++++ooooOOOOOOOOOOOOoooooooo        ....oooo    ",
"OOOO....OOOOoooo++++ooooOOOOOOOOOOOOoooooooo        ....oooo    ",
"OOOO....OOOOoooo++++ooooOOOOOOOOOOOOoooooooo        ....oooo    ",
"    XXXXXXXXooooooooooooOOOOXXXXOOOOXXXX    OOOOOOOOoooooooo    ",
"    XXXXXXXXooooooooooooOOOOXXXXOOOOXXXX    OOOOOOOOoooooooo    ",
"    XXXXXXXXooooooooooooOOOOXXXXOOOOXXXX    OOOOOOOOoooooooo    ",
"    XXXXXXXXooooooooooooOOOOXXXXOOOOXXXX    OOOOOOOOoooooooo    ",
"XXXXXXXXooooooooXXXXXXXXXXXXoooooooo....XXXXooooXXXX....XXXX    ",
"XXXXXXXXooooooooXXXXXXXXXXXXoooooooo....XXXXooooXXXX....XXXX    ",
"XXXXXXXXooooooooXXXXXXXXXXXXoooooooo....XXXXooooXXXX....XXXX    ",
"XXXXXXXXooooooooXXXXXXXXXXXXoooooooo....XXXXooooXXXX....XXXX    ",
"XXXX........XXXX    ....XXXXooooXXXX........XXXX............    ",
"XXXX........XXXX    ....XXXXooooXXXX........XXXX............    ",
"XXXX........XXXX    ....XXXXooooXXXX........XXXX............    ",
"XXXX........XXXX    ....XXXXooooXXXX........XXXX............    ",
"........        ........                ....    ....        ....",
"........        ........                ....    ....        ....",
"........        ........                ....    ....        ....",
"........        ........                ....    ....        ....",
"oooo....oooo    ooooooooXXXX    ....ooooOOOOXXXX++++++++OOOO++++",
"oooo....oooo    ooooooooXXXX    ....ooooOOOOXXXX++++++++OOOO++++",
"oooo....oooo    ooooooooXXXX    ....ooooOOOOXXXX++++++++OOOO++++",
"oooo....oooo    ooooooooXXXX    ....ooooOOOOXXXX++++++++OOOO++++",
"ooooXXXXOOOO....ooooXXXXXXXX    XXXXOOOOXXXXOOOOOOOO++++OOOOoooo",
"ooooXXXXOOOO....ooooXXXXXXXX    XXXXOOOOXXXXOOOOOOOO++++OOOOoooo",
"ooooXXXXOOOO....ooooXXXXXXXX    XXXXOOOOXXXXOOOOOOOO++++OOOOoooo",
"ooooXXXXOOOO....ooooXXXXXXXX    XXXXOOOOXXXXOOOOOOOO++++OOOOoooo",
"XXXXooooOOOO++++....ooooXXXX        OOOOOOOO++++OOOOOOOOoooooooo",
"XXXXooooOOOO++++....ooooXXXX        OOOOOOOO++++OOOOOOOOoooooooo",
"XXXXooooOOOO++++....ooooXXXX        OOOOOOOO++++OOOOOOOOoooooooo",
"XXXXooooOOOO++++....ooooXXXX        OOOOOOOO++++OOOOOOOOoooooooo",
"OOOOOOOOooooOOOO....oooooooo    ++++++++ooooOOOOOOOO....OOOOOOOO",
"OOOOOOOOooooOOOO....oooooooo    ++++++++ooooOOOOOOOO....OOOOOOOO",
"OOOOOOOOooooOOOO....oooooooo    ++++++++ooooOOOOOOOO....OOOOOOOO",
"OOOOOOOOooooOOOO....oooooooo    ++++++++ooooOOOOOOOO....OOOOOOOO",
"oooo    XXXXooooOOOO....        OOOO++++OOOOoooo....++++OOOO    ",
"oooo    XXXXooooOOOO....        OOOO++++OOOOoooo....++++OOOO    ",
"oooo    XXXXooooOOOO....        OOOO++++OOOOoooo....++++OOOO    ",
"oooo    XXXXooooOOOO....        OOOO++++OOOOoooo....++++OOOO    ",
"XXXX    XXXXXXXXXXXXooooXXXX    OOOOOOOOoooooooo    oooo....oooo",
"XXXX    XXXXXXXXXXXXooooXXXX    OOOOOOOOoooooooo    oooo....oooo",
"XXXX    XXXXXXXXXXXXooooXXXX    OOOOOOOOoooooooo    oooo....oooo",
"XXXX    XXXXXXXXXXXXooooXXXX    OOOOOOOOoooooooo    oooo....oooo",
"XXXX....    ................    XXXX............    ............",
"XXXX....    ................    XXXX............    ............",
"XXXX....    ................    XXXX............    ............",
"XXXX....    ................    XXXX............    ............",
"            ........                    ....    ........        ",
"            ........                    ....    ........        ",
"            ........                    ....    ........        ",
"            ........                    ....    ........        "
};
