/* XPM */
static char *coin_1[] = {
/* columns rows colors chars-per-pixel */
"64 64 10 1 ",
"  c #541209",
". c #542409",
"X c #752802",
"o c #B26411",
"O c #DBA213",
"+ c #ECCB45",
"@ c #EAEE57",
"# c #F6F892",
"$ c #FEFFE6",
"% c None",
/* pixels */
"%%%%%%%%%%%%%%%%%%%%%%%%%%%%%%%%%%%%%%%%%%%%%%%%%%%%%%%%%%%%%%%%",
"%%%%%%%%%%%%%%%%%%%%%%%%%%%%%%%%%%%%%%%%%%%%%%%%%%%%%%%%%%%%%%%%",
"%%%%%%%%%%%%%%%%%%%%%%%%%%%%%%%%%%%%%%%%%%%%%%%%%%%%%%%%%%%%%%%%",
"%%%%%%%%%%%%%%%%%%%%%%%%%%%%%%%%%%%%%%%%%%%%%%%%%%%%%%%%%%%%%%%%",
"%%%%%%%%%%%%%%%%%%%%%%%%%%%%%%%%%%%%XXXX%%%%%%%%%%%%%%%%%%%%%%%%",
"%%%%%%%%%%%%%%%%%%%%%%%%%%%%%%%%%%%%XXXX%%%%%%%%%%%%%%%%%%%%%%%%",
"%%%%%%%%%%%%%%%%%%%%%%%%%%%%%%%%%%%%XXXX%%%%%%%%%%%%%%%%%%%%%%%%",
"%%%%%%%%%%%%%%%%%%%%%%%%%%%%%%%%%%%%XXXX%%%%%%%%%%%%%%%%%%%%%%%%",
"%%%%%%%%%%%%%%%%%%%%%%%%%%%%%%%%oooo....%%%%%%%%%%%%%%%%%%%%%%%%",
"%%%%%%%%%%%%%%%%%%%%%%%%%%%%%%%%oooo....%%%%%%%%%%%%%%%%%%%%%%%%",
"%%%%%%%%%%%%%%%%%%%%%%%%%%%%%%%%oooo....%%%%%%%%%%%%%%%%%%%%%%%%",
"%%%%%%%%%%%%%%%%%%%%%%%%%%%%%%%%oooo....%%%%%%%%%%%%%%%%%%%%%%%%",
"%%%%%%%%%%%%%%%%%%%%%%%%%%%%%%%%XXXX%%%%%%%%%%%%%%%%%%%%%%%%%%%%",
"%%%%%%%%%%%%%%%%%%%%%%%%%%%%%%%%XXXX%%%%%%%%%%%%%%%%%%%%%%%%%%%%",
"%%%%%%%%%%%%%%%%%%%%%%%%%%%%%%%%XXXX%%%%%%%%%%%%%%%%%%%%%%%%%%%%",
"%%%%%%%%%%%%%%%%%%%%%%%%%%%%%%%%XXXX%%%%%%%%%%%%%%%%%%%%%%%%%%%%",
"%%%%%%%%%%%%%%%%%%%%ooooooooXXXX....XXXXXXXX%%%%%%%%%%%%%%%%%%%%",
"%%%%%%%%%%%%%%%%%%%%ooooooooXXXX....XXXXXXXX%%%%%%%%%%%%%%%%%%%%",
"%%%%%%%%%%%%%%%%%%%%ooooooooXXXX....XXXXXXXX%%%%%%%%%%%%%%%%%%%%",
"%%%%%%%%%%%%%%%%%%%%ooooooooXXXX....XXXXXXXX%%%%%%%%%%%%%%%%%%%%",
"%%%%%%%%%%%%ooooOOOO$$$$OOOO....oooo++++OOOOXXXXXXXX%%%%%%%%%%%%",
"%%%%%%%%%%%%ooooOOOO$$$$OOOO....oooo++++OOOOXXXXXXXX%%%%%%%%%%%%",
"%%%%%%%%%%%%ooooOOOO$$$$OOOO....oooo++++OOOOXXXXXXXX%%%%%%%%%%%%",
"%%%%%%%%%%%%ooooOOOO$$$$OOOO....oooo++++OOOOXXXXXXXX%%%%%%%%%%%%",
"%%%%%%%%ooooOOOO@@@@####$$$$$$$$$$$$####@@@@OOOOXXXXXXXX%%%%%%%%",
"%%%%%%%%ooooOOOO@@@@####$$$$$$$$$$$$####@@@@OOOOXXXXXXXX%%%%%%%%",
"%%%%%%%%ooooOOOO@@@@####$$$$$$$$$$$$####@@@@OOOOXXXXXXXX%%%%%%%%",
"%%%%%%%%ooooOOOO@@@@####$$$$$$$$$$$$####@@@@OOOOXXXXXXXX%%%%%%%%",
"%%%%%%%%ooooOOOO@@@@@@@@@@@@@@@@@@@@@@@@++++@@@@OOOOXXXX%%%%%%%%",
"%%%%%%%%ooooOOOO@@@@@@@@@@@@@@@@@@@@@@@@++++@@@@OOOOXXXX%%%%%%%%",
"%%%%%%%%ooooOOOO@@@@@@@@@@@@@@@@@@@@@@@@++++@@@@OOOOXXXX%%%%%%%%",
"%%%%%%%%ooooOOOO@@@@@@@@@@@@@@@@@@@@@@@@++++@@@@OOOOXXXX%%%%%%%%",
"%%%%%%%%ooooOOOO++++@@@@++++@@@@++++++++++++@@@@++++    %%%%%%%%",
"%%%%%%%%ooooOOOO++++@@@@++++@@@@++++++++++++@@@@++++    %%%%%%%%",
"%%%%%%%%ooooOOOO++++@@@@++++@@@@++++++++++++@@@@++++    %%%%%%%%",
"%%%%%%%%ooooOOOO++++@@@@++++@@@@++++++++++++@@@@++++    %%%%%%%%",
"%%%%%%%%XXXXOOOOOOOO++++++++OOOOOOOO++++OOOO@@@@++++    %%%%%%%%",
"%%%%%%%%XXXXOOOOOOOO++++++++OOOOOOOO++++OOOO@@@@++++    %%%%%%%%",
"%%%%%%%%XXXXOOOOOOOO++++++++OOOOOOOO++++OOOO@@@@++++    %%%%%%%%",
"%%%%%%%%XXXXOOOOOOOO++++++++OOOOOOOO++++OOOO@@@@++++    %%%%%%%%",
"%%%%%%%%XXXXOOOOOOOOOOOOOOOOOOOO++++OOOOOOOO@@@@OOOO    %%%%%%%%",
"%%%%%%%%XXXXOOOOOOOOOOOOOOOOOOOO++++OOOOOOOO@@@@OOOO    %%%%%%%%",
"%%%%%%%%XXXXOOOOOOOOOOOOOOOOOOOO++++OOOOOOOO@@@@OOOO    %%%%%%%%",
"%%%%%%%%XXXXOOOOOOOOOOOOOOOOOOOO++++OOOOOOOO@@@@OOOO    %%%%%%%%",
"%%%%%%%%%%%%XXXXOOOOOOOO++++OOOOOOOOOOOO++++OOOO    %%%%%%%%%%%%",
"%%%%%%%%%%%%XXXXOOOOOOOO++++OOOOOOOOOOOO++++OOOO    %%%%%%%%%%%%",
"%%%%%%%%%%%%XXXXOOOOOOOO++++OOOOOOOOOOOO++++OOOO    %%%%%%%%%%%%",
"%%%%%%%%%%%%XXXXOOOOOOOO++++OOOOOOOOOOOO++++OOOO    %%%%%%%%%%%%",
"%%%%%%%%%%%%XXXXooooOOOOOOOOOOOO++++++++OOOOoooo    %%%%%%%%%%%%",
"%%%%%%%%%%%%XXXXooooOOOOOOOOOOOO++++++++OOOOoooo    %%%%%%%%%%%%",
"%%%%%%%%%%%%XXXXooooOOOOOOOOOOOO++++++++OOOOoooo    %%%%%%%%%%%%",
"%%%%%%%%%%%%XXXXooooOOOOOOOOOOOO++++++++OOOOoooo    %%%%%%%%%%%%",
"%%%%%%%%%%%%%%%%    ooooOOOOooooooooOOOOoooo    %%%%%%%%%%%%%%%%",
"%%%%%%%%%%%%%%%%    ooooOOOOooooooooOOOOoooo    %%%%%%%%%%%%%%%%",
"%%%%%%%%%%%%%%%%    ooooOOOOooooooooOOOOoooo    %%%%%%%%%%%%%%%%",
"%%%%%%%%%%%%%%%%    ooooOOOOooooooooOOOOoooo    %%%%%%%%%%%%%%%%",
"%%%%%%%%%%%%%%%%%%%%    XXXXXXXXXXXX        %%%%%%%%%%%%%%%%%%%%",
"%%%%%%%%%%%%%%%%%%%%    XXXXXXXXXXXX        %%%%%%%%%%%%%%%%%%%%",
"%%%%%%%%%%%%%%%%%%%%    XXXXXXXXXXXX        %%%%%%%%%%%%%%%%%%%%",
"%%%%%%%%%%%%%%%%%%%%    XXXXXXXXXXXX        %%%%%%%%%%%%%%%%%%%%",
"%%%%%%%%%%%%%%%%%%%%%%%%%%%%%%%%%%%%%%%%%%%%%%%%%%%%%%%%%%%%%%%%",
"%%%%%%%%%%%%%%%%%%%%%%%%%%%%%%%%%%%%%%%%%%%%%%%%%%%%%%%%%%%%%%%%",
"%%%%%%%%%%%%%%%%%%%%%%%%%%%%%%%%%%%%%%%%%%%%%%%%%%%%%%%%%%%%%%%%",
"%%%%%%%%%%%%%%%%%%%%%%%%%%%%%%%%%%%%%%%%%%%%%%%%%%%%%%%%%%%%%%%%"
};
