/* XPM */
static char *Player_8L[] = {
/* columns rows colors chars-per-pixel */
"64 64 5 1 ",
"  c black",
". c #1B1B1B",
"X c #2D2D2D",
"o c white",
"O c None",
/* pixels */
"OOOOOOOOOOOOOOOOOOOOOOOOOOOOOOOOOOOOOOOOOOOOOOOOOOOOOOOOOOOOOOOO",
"OOOOOOOOOOOOOOOOOOOOOOOOOOOOOOOOOOOOOOOOOOOOOOOOOOOOOOOOOOOOOOOO",
"OOOOOOOOOOOOOOOOOOOOOOOOOOOOOOOOOOOOOOOOOOOOOOOOOOOOOOOOOOOOOOOO",
"OOOOOOOOOOOOOOOOOOOOOOOOOOOOOOOOOOOOOOOOOOOOOOOOOOOOOOOOOOOOOOOO",
"OOOOOOOOOOOOOOOOOOOOOOOOOOOOOOOOOOOOOOOOOOOOOOOOOOOOOOOOOOOOOOOO",
"OOOOOOOOOOOOOOOOOOOOOOOOOOOOOOOOOOOOOOOOOOOOOOOOOOOOOOOOOOOOOOOO",
"OOOOOOOOOOOOOOOOOOOOOOOOOOOOOOOOOOOOOOOOOOOOOOOOOOOOOOOOOOOOOOOO",
"OOOOOOOOOOOOOOOOOOOOOOOOOOOOOOOOOOOOOOOOOOOOOOOOOOOOOOOOOOOOOOOO",
"OOOOOOOOOOOOOOOOOOOOOOOOOOOOOOOOOOOOOOOOOOOOOOOOOOOOOOOOOOOOOOOO",
"OOOOOOOOOOOOOOOOOOOOOOOOOOOOOOOOOOOOOOOOOOOOOOOOOOOOOOOOOOOOOOOO",
"OOOOOOOOOOOOOOOOOOOOOOOOOOOOOOOOOOOOOOOOOOOOOOOOOOOOOOOOOOOOOOOO",
"OOOOOOOOOOOOOOOOOOOOOOOOOOOOOOOOOOOOOOOOOOOOOOOOOOOOOOOOOOOOOOOO",
"OOOOOOOOOOOOOOOOOOOOOOOOOO        OOOOOOOOOOOOOOOOOOOOOOOOOOOOOO",
"OOOOOOOOOOOOOOOOOOOOOOOOOO        OOOOOOOOOOOOOOOOOOOOOOOOOOOOOO",
"OOOOOOOOOOOOOOOOOOOO                    OOOOOOOOOOOOOOOOOOOOOOOO",
"OOOOOOOOOOOOOOOOOOOO                    OOOOOOOOOOOOOOOOOOOOOOOO",
"OOOOOOOOOOOOOOOO                            OOOOOOOOOOOOOOOOOOOO",
"OOOOOOOOOOOOOOOO                            OOOOOOOOOOOOOOOOOOOO",
"OOOOOOOOOOOO                                    OOOOOOOOOOOOOOOO",
"OOOOOOOOOOOO                                    OOOOOOOOOOOOOOOO",
"OOOOOOOOOOOOOOOOOOOOOOOO  oo        OOOOOOOOOOOOOOOOOOOOOOOOOOOO",
"OOOOOOOOOOOOOOOOOOOOOOOO  oo        OOOOOOOOOOOOOOOOOOOOOOOOOOOO",
"OOOOOOOOOOOOOOOOOOOOOOOO  oo        OOOOOOOOOOOOOOOOOOOOOOOOOOOO",
"OOOOOOOOOOOOOOOOOOOOOOOO  oo        OOOOOOOOOOOOOOOOOOOOOOOOOOOO",
"OOOOOOOOOOOOOOOOOOOOOOOO            OOOOOOOOOOOOOOOOOOOOOOOOOOOO",
"OOOOOOOOOOOOOOOOOOOOOOOO            OOOOOOOOOOOOOOOOOOOOOOOOOOOO",
"OOOOOOOOOOOOOOOOOOOOOOOO        XXXXXXOOOOOOOOOOOOOOOOOOOOOOOOOO",
"OOOOOOOOOOOOOOOOOOOOOOOO        XXXXXXOOOOOOOOOOOOOOOOOOOOOOOOOO",
"OOOOOOOOOOOOOOOOOOOOOOOOXX      XXXXXXXXOOOOOOOOOOOOOOOOOOOOOOOO",
"OOOOOOOOOOOOOOOOOOOOOOOOXX      XXXXXXXXOOOOOOOOOOOOOOOOOOOOOOOO",
"OOOOOOOOOOOOOOOOOOOOOOOOXXXXXXXXXXXXXXXXOOOOOOOOOOOOOOOOOOOOOOOO",
"OOOOOOOOOOOOOOOOOOOOOOOOXXXXXXXXXXXXXXXXOOOOOOOOOOOOOOOOOOOOOOOO",
"OOOOOOOOOOOOOOOOOOOOOOOOXXXXXXXXXXXXXXXXXXOOOOOOOOOOOOOOOOOOOOOO",
"OOOOOOOOOOOOOOOOOOOOOOOOXXXXXXXXXXXXXXXXXXOOOOOOOOOOOOOOOOOOOOOO",
"OOOOOOOOOOOOOOOOOOOOOOXX    XXXXXXXXXXXXXXOOOOOOOOOOOOOOOOOOOOOO",
"OOOOOOOOOOOOOOOOOOOOOOXX    XXXXXXXXXXXXXXOOOOOOOOOOOOOOOOOOOOOO",
"OOOOOOOOOOOOOO......OOXX    XXXXXXXXXXXXXXOOOOOOOOOOOOOOOOOOOOOO",
"OOOOOOOOOOOOOO......OOXX    XXXXXXXXXXXXXXOOOOOOOOOOOOOOOOOOOOOO",
"OOOOOOOOOOOOOO........XX      XXXXXXXXXXXXXXOOOOOOOOOOOOOOOOOOOO",
"OOOOOOOOOOOOOO........XX      XXXXXXXXXXXXXXOOOOOOOOOOOOOOOOOOOO",
"OOOOOOOOOOOOOOOOOO..XX        XXXXXXXXXXXXXXOOOOOOOOOOOOOOOOOOOO",
"OOOOOOOOOOOOOOOOOO..XX        XXXXXXXXXXXXXXOOOOOOOOOOOOOOOOOOOO",
"OOOOOOOOOOOOOOOOOOOOXX        XXXXXXXXXXXXXXOOOOOOOOOOOOOOOOOOOO",
"OOOOOOOOOOOOOOOOOOOOXX        XXXXXXXXXXXXXXOOOOOOOOOOOOOOOOOOOO",
"OOOOOOOOOOOOOOOOOOOOXX          XXXXXXXXXXXXooOOOOOOOOOOOOOOOOOO",
"OOOOOOOOOOOOOOOOOOOOXX          XXXXXXXXXXXXooOOOOOOOOOOOOOOOOOO",
"OOOOOOOOOOOOOOOOOOOOXX          XXXXXXXXXXXXXXooooooOOOOOOOOOOOO",
"OOOOOOOOOOOOOOOOOOOOXX          XXXXXXXXXXXXXXooooooOOOOOOOOOOOO",
"OOOOOOOOOOOOOOOOOOXX            XXXXXXXXXXXXXXooooooooooOOOOOOOO",
"OOOOOOOOOOOOOOOOOOXX            XXXXXXXXXXXXXXooooooooooOOOOOOOO",
"OOOOOOOOOOOOOOOOOOXX            XXXXXXXXXXXXXXOOOOooooooOOOOOOOO",
"OOOOOOOOOOOOOOOOOOXX            XXXXXXXXXXXXXXOOOOooooooOOOOOOOO",
"OOOOOOOOOOOOOOOOOOXX              XXXXXXXXXXXXOOOOOOOOOOOOOOOOOO",
"OOOOOOOOOOOOOOOOOOXX              XXXXXXXXXXXXOOOOOOOOOOOOOOOOOO",
"OOOOOOOOOOOOOOOOOOXX              XXXXXXXXXXXXOOOOOOOOOOOOOOOOOO",
"OOOOOOOOOOOOOOOOOOXX              XXXXXXXXXXXXOOOOOOOOOOOOOOOOOO",
"OOOOOOOOOOOOOOOOOOXXXX      OOOOOOXXXXXXXXXXXXOOOOOOOOOOOOOOOOOO",
"OOOOOOOOOOOOOOOOOOXXXX      OOOOOOXXXXXXXXXXXXOOOOOOOOOOOOOOOOOO",
"OOOOOOOOOOOOOOOOOOOOOO    OOOOOOOOOOXXXXXXXXOOOOOOOOOOOOOOOOOOOO",
"OOOOOOOOOOOOOOOOOOOOOO    OOOOOOOOOOXXXXXXXXOOOOOOOOOOOOOOOOOOOO",
"OOOOOOOOOOOOOOOOOOOOOO  OOOOOOOOOOOOOOOO  OOOOOOOOOOOOOOOOOOOOOO",
"OOOOOOOOOOOOOOOOOOOOOO  OOOOOOOOOOOOOOOO  OOOOOOOOOOOOOOOOOOOOOO",
"OOOOOOOOOOOOOOOOOOOOOO  OOOOOOOOOOOOOOOO  OOOOOOOOOOOOOOOOOOOOOO",
"OOOOOOOOOOOOOOOOOOOOOO  OOOOOOOOOOOOOOOO  OOOOOOOOOOOOOOOOOOOOOO"
};
