/* XPM */
static char *coin[] = {
/* columns rows colors chars-per-pixel */
"64 64 16 1 ",
"  c gray14",
". c #2D2D2D",
"X c #383737",
"o c #530A02",
"O c #531F02",
"+ c #762300",
"@ c #414141",
"# c #4B4C4F",
"$ c #585858",
"% c gray43",
"& c #B46408",
"* c #DCA40B",
"= c #EDCC43",
"- c #EBEF56",
"; c #F6F893",
": c #FEFFE7",
/* pixels */
"$$$$%%%%%%%%%%%%%%%%%%%%%%%%%%%%%%%%%%%%%%%%%%%%$$$$$$$$@@@@    ",
"$$$$%%%%%%%%%%%%%%%%%%%%%%%%%%%%%%%%%%%%%%%%%%%%$$$$$$$$@@@@    ",
"$$$$%%%%%%%%%%%%%%%%%%%%%%%%%%%%%%%%%%%%%%%%%%%%$$$$$$$$@@@@    ",
"$$$$%%%%%%%%%%%%%%%%%%%%%%%%%%%%%%%%%%%%%%%%%%%%$$$$$$$$@@@@    ",
"%%%%$$$$$$$$$$$$$$$$$$$$$$$$$$$$####++++$$$$$$$$$$$$@@@@XXXX    ",
"%%%%$$$$$$$$$$$$$$$$$$$$$$$$$$$$####++++$$$$$$$$$$$$@@@@XXXX    ",
"%%%%$$$$$$$$$$$$$$$$$$$$$$$$$$$$####++++$$$$$$$$$$$$@@@@XXXX    ",
"%%%%$$$$$$$$$$$$$$$$$$$$$$$$$$$$####++++$$$$$$$$$$$$@@@@XXXX    ",
"%%%%$$$$$$$$$$$$$$$$########$$$$&&&&OOOO$$$$$$$$####@@@@@@@@    ",
"%%%%$$$$$$$$$$$$$$$$########$$$$&&&&OOOO$$$$$$$$####@@@@@@@@    ",
"%%%%$$$$$$$$$$$$$$$$########$$$$&&&&OOOO$$$$$$$$####@@@@@@@@    ",
"%%%%$$$$$$$$$$$$$$$$########$$$$&&&&OOOO$$$$$$$$####@@@@@@@@    ",
"%%%%@@@@####$$$$####@@@@@@@@$$$$++++########$$$$@@@@####@@@@    ",
"%%%%@@@@####$$$$####@@@@@@@@$$$$++++########$$$$@@@@####@@@@    ",
"%%%%@@@@####$$$$####@@@@@@@@$$$$++++########$$$$@@@@####@@@@    ",
"%%%%@@@@####$$$$####@@@@@@@@$$$$++++########$$$$@@@@####@@@@    ",
"%%%%XXXX$$$$@@@@XXXX&&&&&&&&++++OOOO++++++++@@@@####XXXX@@@@    ",
"%%%%XXXX$$$$@@@@XXXX&&&&&&&&++++OOOO++++++++@@@@####XXXX@@@@    ",
"%%%%XXXX$$$$@@@@XXXX&&&&&&&&++++OOOO++++++++@@@@####XXXX@@@@    ",
"%%%%XXXX$$$$@@@@XXXX&&&&&&&&++++OOOO++++++++@@@@####XXXX@@@@    ",
"$$$$####XXXX&&&&****::::****OOOO&&&&====****++++++++XXXX....    ",
"$$$$####XXXX&&&&****::::****OOOO&&&&====****++++++++XXXX....    ",
"$$$$####XXXX&&&&****::::****OOOO&&&&====****++++++++XXXX....    ",
"$$$$####XXXX&&&&****::::****OOOO&&&&====****++++++++XXXX....    ",
"XXXXXXXX&&&&****----;;;;::::::::::::;;;;----****++++++++XXXX    ",
"XXXXXXXX&&&&****----;;;;::::::::::::;;;;----****++++++++XXXX    ",
"XXXXXXXX&&&&****----;;;;::::::::::::;;;;----****++++++++XXXX    ",
"XXXXXXXX&&&&****----;;;;::::::::::::;;;;----****++++++++XXXX    ",
"........&&&&****------------------------====----****++++    ....",
"........&&&&****------------------------====----****++++    ....",
"........&&&&****------------------------====----****++++    ....",
"........&&&&****------------------------====----****++++    ....",
"%%%%%%%%&&&&****====----====----============----====oooo%%%%%%%%",
"%%%%%%%%&&&&****====----====----============----====oooo%%%%%%%%",
"%%%%%%%%&&&&****====----====----============----====oooo%%%%%%%%",
"%%%%%%%%&&&&****====----====----============----====oooo%%%%%%%%",
"$$$$$$$$++++********========********====****----====oooo$$$$$$$$",
"$$$$$$$$++++********========********====****----====oooo$$$$$$$$",
"$$$$$$$$++++********========********====****----====oooo$$$$$$$$",
"$$$$$$$$++++********========********====****----====oooo$$$$$$$$",
"$$$$####++++********************====********----****oooo$$$$$$$$",
"$$$$####++++********************====********----****oooo$$$$$$$$",
"$$$$####++++********************====********----****oooo$$$$$$$$",
"$$$$####++++********************====********----****oooo$$$$$$$$",
"$$$$########++++********====************====****oooo@@@@$$$$$$$$",
"$$$$########++++********====************====****oooo@@@@$$$$$$$$",
"$$$$########++++********====************====****oooo@@@@$$$$$$$$",
"$$$$########++++********====************====****oooo@@@@$$$$$$$$",
"####XXXX@@@@++++&&&&************========****&&&&oooo####$$$$$$$$",
"####XXXX@@@@++++&&&&************========****&&&&oooo####$$$$$$$$",
"####XXXX@@@@++++&&&&************========****&&&&oooo####$$$$$$$$",
"####XXXX@@@@++++&&&&************========****&&&&oooo####$$$$$$$$",
"XXXXXXXXXXXX@@@@oooo&&&&****&&&&&&&&****&&&&oooo####@@@@####@@@@",
"XXXXXXXXXXXX@@@@oooo&&&&****&&&&&&&&****&&&&oooo####@@@@####@@@@",
"XXXXXXXXXXXX@@@@oooo&&&&****&&&&&&&&****&&&&oooo####@@@@####@@@@",
"XXXXXXXXXXXX@@@@oooo&&&&****&&&&&&&&****&&&&oooo####@@@@####@@@@",
"XXXXXXXXXXXXXXXXXXXXoooo++++++++++++ooooooooXXXXXXXXXXXXXXXXXXXX",
"XXXXXXXXXXXXXXXXXXXXoooo++++++++++++ooooooooXXXXXXXXXXXXXXXXXXXX",
"XXXXXXXXXXXXXXXXXXXXoooo++++++++++++ooooooooXXXXXXXXXXXXXXXXXXXX",
"XXXXXXXXXXXXXXXXXXXXoooo++++++++++++ooooooooXXXXXXXXXXXXXXXXXXXX",
"........................                ........................",
"........................                ........................",
"........................                ........................",
"........................                ........................"
};
