/* XPM */
static char *exit_yes[] = {
/* columns rows colors chars-per-pixel */
"64 64 95 2 ",
"   c #37009D",
".  c #3700A2",
"X  c #3800A4",
"o  c #3900A4",
"O  c #3A00A7",
"+  c #3C00AA",
"@  c #3D00AB",
"#  c #3C00AD",
"$  c #3D00AD",
"%  c #3F00AE",
"&  c #4000B0",
"*  c #4100B0",
"=  c #4200B1",
"-  c #4100B3",
";  c #4400B3",
":  c #4301B5",
">  c #4501B5",
",  c #4601B6",
"<  c #4701B7",
"1  c #4801B8",
"2  c #4902BA",
"3  c #4A02BA",
"4  c #4B02BC",
"5  c #4C04BC",
"6  c #4E04BC",
"7  c #4E04BE",
"8  c #5004BE",
"9  c #5104C0",
"0  c #5204C0",
"q  c #5205C0",
"w  c #5405C2",
"e  c #5505C2",
"r  c #5506C2",
"t  c #5606C2",
"y  c #5706C4",
"u  c #5807C4",
"i  c #5907C4",
"p  c #5A09C6",
"a  c #5B09C6",
"s  c #5C09C6",
"d  c #5E09C6",
"f  c #5E0AC7",
"g  c #5F0AC8",
"h  c #600AC7",
"j  c #610BC9",
"k  c #620BC8",
"l  c #630CCB",
"z  c #640DCB",
"x  c #650DCB",
"c  c #650FCB",
"v  c #670FCB",
"b  c #670FCD",
"n  c #690FCD",
"m  c #6910CD",
"M  c #6A10CD",
"N  c #6B11CE",
"B  c #6C12CE",
"V  c #6E12CE",
"C  c #6D12D0",
"Z  c #6D13D0",
"A  c #6F14D0",
"S  c #7117D1",
"D  c #7317D1",
"F  c #7317D2",
"G  c #7518D2",
"H  c #7519D3",
"J  c #7619D3",
"K  c #761AD3",
"L  c #781BD4",
"P  c #791BD4",
"I  c #791CD4",
"U  c #7A1CD4",
"Y  c #7A1CD5",
"T  c #7D20D6",
"R  c #8021D7",
"E  c #8022D7",
"W  c #8123D7",
"Q  c #8123D8",
"!  c #8324D8",
"~  c #8325D8",
"^  c #882ADA",
"/  c #892BDC",
"(  c #8A2CDC",
")  c #8B2DDC",
"_  c #8F30DD",
"`  c #8F31DD",
"'  c #9033DD",
"]  c #9335DE",
"[  c #9337DE",
"{  c #9438E0",
"}  c #9A3EE1",
"|  c #9A3FE1",
" . c #9B40E1",
".. c #9B40E2",
"X. c #9F45E4",
/* pixels */
"7 7 7 7 I I I I T T T T M M M M e e e t 5 2 2 2 w q t t L L L L s s a a % % # # N N N N E I T T e w w w . O . . O O . O 7 7 7 7 ",
"7 7 7 7 I I I I T T T T M M M M t t t t 2 2 2 2 e t w 8 Y Y L L s s a a # # O % N N N N T Q T T e w w w . . O . O . O O 7 7 7 7 ",
"7 7 7 7 I I I I T T T T M M M M t t 7 f 2 2 2 2 w w q w Y H Y I s i f a # % % # N N N N T T T T w w w w . O O . O O . O 7 7 7 7 ",
"7 7 7 7 I I I I T T T T M M M M e e e 7 2 2 2 2 w w t q Y Y Y I i f a a # # # % N N N M T T T T w w w w . O . O O . O . 7 7 7 7 ",
"| | | | E E E E n n n n E E E E f f a f @ @ @ o : : % : 4 4 5 1 ; ; ; ; O . . . ; ; ; ; i y y a 1 1 7 1 < = ; ; 3 3 3 3 8 e 8 e ",
"| | | | E E E E n n n n E E R R g a g f O @ @ @ : % : : 4 4 1 4 ; ; ; ; . . . . ; ; ; ; i a y y 1 7 1 1 ; ; ; ; 3 3 3 3 8 8 8 8 ",
"| | | | E E E E n n n n R R R R g g g g @ @ @ @ : : % : 2 1 4 1 ; ; ; ; . . . . ; ; = < i i y i 1 1 7 7 ; ; ; ; 3 3 3 3 0 0 e 8 ",
"| | | | E E E E n n n n R R R R g a g g @ O @ @ = % : % 1 4 1 4 ; ; : % . . . . ; ; ; = i i i y 7 1 1 1 ; ; ; ; 3 3 3 3 0 0 0 9 ",
"W W W W C C C C ^ ^ ^ ^ n N N N O . O . . . o o i f f a D D F F E Q Q Q 8 7 8 4 j x x x c c c c : : : : @ . O . e 8 i 8 f i i i ",
"W W W Q C C C C ^ ^ ^ ^ N N V N . O O O . O o o f a a a D A F H E ~ Q Q 7 8 7 8 c c x x c c c c : : : : . o . O 8 e 8 7 i i i i ",
"W W Q Q C C C C ^ ^ ^ ^ V N V V O . O O O o o o a f a f H F N H Q Q Q Q 8 8 5 5 x x x x c c n x : : : : o O O O e 7 i i i i i i ",
"W W Q T C C C C ^ ^ ^ ^ V V N N O O . O . . o o f i a a F F H G Q Q Q Q 5 8 8 7 x x x x c c n x : : : < . O   O 8 e 8 8 i i i i ",
": : : : l l l l a a a a O O O O # O % # l x l x ` ' _ _ j g c j H H K K e e e e e e u q ` ` ) _ F D D H @ @ @ @ o o o o 7 1 8 1 ",
": : : : l l l l a a a a O O O O % O # O x l x x ` ) _ _ g c g j H L K K w e e e e e q u ` ` { ) V D H D @ @ @ @ o o o . 3 8 3 8 ",
": : : : z l z z a a a a O O O O # O % O l x x x _ _ _ _ j g h k H K K K t w u e e t t q ) ` ` ` F F D H @ @ @ @ o o O . 3 7 8 3 ",
": : : : z j z c a a a a O O O O % O # # x l c x _ _ _ _ j g c h L H K K e e e e e t q u { ) ` ` F F F F @ @ @ & o o . O 7 3 5 7 ",
"O O O O < < < < O % # # . O X X z z c h }  . . .f g i g O O O O : % % : : % % % . . . . t t t e / / ) ^ A A A A % % = % O % O O ",
"O O O O < < < < # # O @ X . X X c a k j }  . . .j f j s O O O O : : : = % % = = . .   . t t t e / ) ^ / A A A A O % O % % O # % ",
"O O O O < < < < % O @ @ X X X X j h c l .... ...f h f f O O O O : = : : % % % %   .   . t q w e / / ) ^ A A A A % # % % O # O % ",
"O O O O < < < < @ O @ @ X X X X c j j h ........f f h f O O O O % : : : % : = % . . . . t t w w / / ^ / A A A N % % % # % # O # ",
"< ; = < 7 5 5 5 O O O O h h h h [ ` ` ` F A D S o o o o @ @ @ @ O O O % 5 5 7 5 O % # O O O O O y y y y | | ....Z Z Z Z % % : % ",
"; < < < 7 5 5 5 O O O O h h h h ` ` [ [ F F S S o o o o @ @ @ @ O O O O 5 7 7 5 @ O O % O O O O y y y y ..| ....Z Z Z Z % % % % ",
"< = < = 5 5 7 5 O O O O h h h h ` [ ` ` S S S S O . . O @ @ @ @ O O O % 5 5 5 5 % O # # O O O O y y y y ........Z Z C Z % % : % ",
"< < ; ; 5 8 5 5 O O O O h h h h ` ` [ ` S S S S . O . O @ @ @ @ % O O O 5 5 5 5 # # % O O O O O y y y y ........Z Z C C % : % % ",
"D S D D l l l l 9 9 9 w W W W W K K K H % % % % O O O O 4 4 4 4 % : % % 9 9 y 7 i i i i o = @ # @ o o o 8 5 8 5 ~ ~ ~ ~ y y y e ",
"H S D D l l l l 9 9 9 9 W W W W K K H H % % % % O O % O 7 1 4 4 % % : % 9 g i i i i i i @ O @ O . o o o 5 5 5 5 ~ ~ ~ ~ y y e e ",
"D D D D l l j z 0 0 9 9 W W W Q K K K K % % % % O O O O 1 7 7 2 % % % % t t 7 i i i s t @ @ @ @ o o o o 5 5 5 5 ~ ~ ~ ~ t t t t ",
"D D D D z j z z 0 0 9 9 W W W T D K K K % % % % O O % O 1 7 7 2 : % : % t t e e i s t t @ @ @ @ o o o . 5 8 7 7 ~ ~ ~ ~ t t t t ",
"k k f c = : : : % % # # y a u u 9 w w w : % : : : = % = % % % % j c h c j g g g v v v v s h s h ; % = % o @ O o 5 7 5 8 7 7 1 4 ",
"k k c g : : : : # # # # a w u u w w w w : : % : = = = = = : O = h h j f j a g a v v v v h s h s = = = % o o . o 5 8 3 3 5 5 4 7 ",
"j j g j : : : : # # # # y u u u w w w w : : % : % = % % O : O = c j g c f f a g v v v v s h f s % : = = . . o . 5 5 8 5 7 1 4 7 ",
"k j c g : : : : # # # # u u u u w w w w % : : : = % = = % % % % c h c c f a f f v v v x d d f j = % = % O O O O 5 5 3 5 7 7 7 1 ",
"M M M M < < < < # % % % 0 0 e 8 w w w w w w w w % # # = X X X X N V Z F T E E E [ [ [ [ a y y y O O O O O # O O c c l c p p p s ",
"M M M M < < < < % % # % 0 9 8 e w w w w w w w w = = % % X X X X V V Z Z E E E E [ [ [ [ u u y e O O O O O O O O c l x l p p s p ",
"M M M M < < < < % O % O 0 9 e 8 w w w w w w w w # % % # X X X X V A A Z E E E E [ [ ] ] u u e a O O O O O O % O l c l c p s p s ",
"M M M n < < < 2 % % % % 9 9 8 8 w w w w w w w w O = % # X X X . F N Z Z E E E E [ [ ] ] w u u e O O O O % O X O x l x l s p s p ",
"j j j j 8 8 8 8 7 4 4 4 ! ! ! ! F A D S : : : : = = = = < < 2 2 d h s h E E E E H H G G j j l c 7 5 5 5 1 4 2 2 v v v v e e e e ",
"j j j j 8 8 8 8 1 4 4 4 ! ! ! ! F F S S % : % : = = = = 2 < < < d s h s E E E E G H G G l c l h 5 5 5 5 1 1 2 2 v v v v y e t t ",
"j j j j 8 8 8 8 4 4 4 4 ! ! ~ W S S S S % : = : = = = = 2 < < < d d s h R R E E H F F G l l l l 5 5 5 5 4 1 7 2 v v c v t t t t ",
"j j j j 8 8 8 8 4 4 4 4 ~ ~ ~ ^ S S S S < % : : = = = = 2 5 < 5 d d h s R R R R F G H G l l c c 5 5 5 5 1 1 1 5 v v n M t t t t ",
"= % % % 9 9 : : O O O O 8 8 i 8 [ [ ]  .K I I H 8 t 7 t t a p p l n x V l l l l ) _ _ ) L U L U % % % % @ O # O < < < < ; < ; < ",
"% % % : % : 2 2 O O O O 8 i 8 7 [ .. ...D I I I e 8 t 7 u a p p x x n x l l l l _ ' _ ' L L U L % : % : O O O O < < < < < ; ; < ",
": : # % < : : 2 @ O o o 8 8 i i ..[ ..] I H I H 8 e 9 9 p p p p n c n n l l x x _ _ _ ) Y Y I I : % % % @ O O O < < < < : < < = ",
"% % : % 2 2 4 : o @ o . i 8 8 8 [ ..[ ..I I I I e 7 w w p p p p c n c n l l x b _ _ _ ' I I I I % % % % @ O O O < < < < < = < < ",
"f i t f M A A C & & & =   . .   5 8 7 7 X.X.X.X.T T T T i i i i Z n N N / / / ) { { { { : : = = O . . . 5 7 5 7 H H D K 8 a t a ",
"f f f f A C b S o & = . . .   . 8 5 7 5 X.X.X.X.T T T T i i i i n Z N N / / ) / { { { { : = = = X . . O w 5 w 5 H H H K g t a t ",
"i f f y C C D C @ & & &   .     5 5 7 5 X.X.X.X.T T T T i i i i N N N N / ) / ) { { { { = = = = O . . . 5 8 5 w H H K D u u q p ",
"f a f f C S C C & & @ &   .     5 8 7 7 X.X.X.X.T T T T i i i i N N N N / / ) / { { { { = = = = . .   O w 4 7 7 H H K K u a p q ",
"g g g g ^ ^ ^ ^ I T T T = # = % .   . . 2 2 4 1 Q ^ Q Q n c n b g g g g U U U U < = < = O O O O < < < < { { { { / / ) ) l k k k ",
"f g g g ^ ^ ^ ^ T T T T = = % : .     . 2 2 1 5 Q Q ~ ~ c n b b g g g g U U U L < < : < O O O O < < < < { { { { ) ) ) ) l h k k ",
"g g g g ^ ^ ^ ^ T T T T : % % %   . . O 2 1 5 1 ~ ~ ~ ~ n c m c g g g g U U L T = < = < O O O O < < < < { { { { ) ) ) ) k k k k ",
"g g g g ^ ^ ^ ^ T T T T % % : % . . . . 4 2 1 4 ~ ~ ~ ~ c M c m g g k d U U L L < : < < O O O O < < < < { { { { ) ) ) ) k k k k ",
"9 9 8 e a a a f ) ) ) ) Y Y Y Y : % : #         7 5 2 2 7 7 8 8 5 8 8 8 < : < 5   . .   < ; < ; ' ' { ) ' _ _ ' < : < = 8 8 8 8 ",
"9 9 e 8 a f f i ) ) ) ) Y Y Y K % : % 9         5 < 2 2 7 7 8 8 8 8 8 8 = < = < .     . < < < < ' ' ' ' _ _ _ ' < < < < 8 8 8 8 ",
"9 9 9 e a a f f ) ) ) ) K T K Y : % : %         2 2 2 2 8 8 8 8 8 8 8 8 : < 5 > . . . . < ; < < ' ' [ [ _ _ _ _ < = < < 8 8 8 3 ",
"9 e e 8 f a a a ) ) ) ` K K Y K % : % =         2 2 2 2 8 8 8 8 8 8 8 8 < < < =     .   < < ; ; ] ' ` ' _ ' ' _ < 2 < < 7 8 5 e ",
"< < < < 3 3 8 < p g s s ]  . .[ Y Y Y Y : % # @ : : % : 5 7 7 3 7 7 7 7 @ @ @ @ < < < < ] ] ] ] ~ ~ ~ ~ : % : # O O # O 9 7 7 7 ",
", 1 , 1 3 1 1 3 g g f f [ X. .X.Y Y Y Y # % % % % % < = 5 3 8 7 7 7 7 7 @ @ @ @ < < < < ] ] ] ] ~ ~ ~ ~ % % % : O % @ O 7 7 7 7 ",
"3 , , , 3 3 8 < a f f f X.[  .[ Y Y I I % % % # : : = : 5 5 8 3 7 7 7 7 @ @ @ @ < < < < ] ] ] ] ~ ~ ~ ~ % % % % % # # # 7 7 7 7 ",
", , < < 3 3 < 8 g f f f  .X.[ X.I I I I % # O = % : ; = 8 5 3 7 7 7 7 7 @ @ @ @ < < < < ] ] ] ] ~ ~ ~ ~ % : % % # O O % 7 7 7 7 ",
"o     o k k k k d h 8 h V V V V M c C M 4 4 4 4 w w w w E E E E R R E E 8 8 w 8 v v v v N N N M % % : % O O O O : : : : O O # # ",
"  o     k k k k h k k h V V V V M n n c 4 4 4 4 w w w w E E E E R R R E 8 w 7 w v v v v N N N M % : % : O O O O : : : : % # % O ",
".     . k k h h h t h d V V V V M M n n 4 4 7 1 w w w w E E E E R R E E 9 9 w 7 v v c n N N n N = % : % O O O O : : : : O # # O ",
". .   . k k k h h h k k V V V V c M M n 4 4 4 7 w w w w E E E E R R E Q 9 9 9 9 v v v M N N Z Z % : % = O O O O : : : : % # O % "
};
