/* XPM */
static char *exit_no[] = {
/* columns rows colors chars-per-pixel */
"64 64 7 1 ",
"  c #664D28",
". c #6B5332",
"X c #5B5B5B",
"o c gray48",
"O c #805E36",
"+ c #8B673C",
"@ c #997140",
/* pixels */
"OOOO++++@@@@@@@@@@@@++++@@@@@@@@@@@@++++@@@@@@@@@@@@++++@@@@OOOO",
"OOOO++++@@@@@@@@@@@@++++@@@@@@@@@@@@++++@@@@@@@@@@@@++++@@@@OOOO",
"OOOO++++@@@@@@@@@@@@++++@@@@@@@@@@@@++++@@@@@@@@@@@@++++@@@@OOOO",
"OOOO++++@@@@@@@@@@@@++++@@@@@@@@@@@@++++@@@@@@@@@@@@++++@@@@OOOO",
"@@@@    ............    OOOO............    OOOO....        @@@@",
"@@@@    ............    OOOO............    OOOO....        @@@@",
"@@@@    ............    OOOO............    OOOO....        @@@@",
"@@@@    ............    OOOO............    OOOO....        @@@@",
"@@@@............OOOOOOOO++++++++++++++++OOOOOOOO............++++",
"@@@@............OOOOOOOO++++++++++++++++OOOOOOOO............++++",
"@@@@............OOOOOOOO++++++++++++++++OOOOOOOO............++++",
"@@@@............OOOOOOOO++++++++++++++++OOOOOOOO............++++",
"++++........OOOO++++OOOO++++++++++++++++OOOO@@@@OOOO........@@@@",
"++++........OOOO++++OOOO++++++++++++++++OOOO@@@@OOOO........@@@@",
"++++........OOOO++++OOOO++++++++++++++++OOOO@@@@OOOO........@@@@",
"++++........OOOO++++OOOO++++++++++++++++OOOO@@@@OOOO........@@@@",
"@@@@....OOOO@@@@++++++++++++++++@@@@@@@@++++@@@@++++OOOO....@@@@",
"@@@@....OOOO@@@@++++++++++++++++@@@@@@@@++++@@@@++++OOOO....@@@@",
"@@@@....OOOO@@@@++++++++++++++++@@@@@@@@++++@@@@++++OOOO....@@@@",
"@@@@....OOOO@@@@++++++++++++++++@@@@@@@@++++@@@@++++OOOO....@@@@",
"@@@@....++++@@@@++++OOOO@@@@++++@@@@@@@@OOOO@@@@++++@@@@    @@@@",
"@@@@....++++@@@@++++OOOO@@@@++++@@@@@@@@OOOO@@@@++++@@@@    @@@@",
"@@@@....++++@@@@++++OOOO@@@@++++@@@@@@@@OOOO@@@@++++@@@@    @@@@",
"@@@@....++++@@@@++++OOOO@@@@++++@@@@@@@@OOOO@@@@++++@@@@    @@@@",
"@@@@    ++++@@@@@@@@OOOO@@@@++++@@@@@@@@++++@@@@@@@@@@@@OOOO++++",
"@@@@    ++++@@@@@@@@OOOO@@@@++++@@@@@@@@++++@@@@@@@@@@@@OOOO++++",
"@@@@    ++++@@@@@@@@OOOO@@@@++++@@@@@@@@++++@@@@@@@@@@@@OOOO++++",
"@@@@    ++++@@@@@@@@OOOO@@@@++++@@@@@@@@++++@@@@@@@@@@@@OOOO++++",
"++++OOOO++++++++++++++++@@@@++++@@@@@@@@++++@@@@@@@@@@@@....@@@@",
"++++OOOO++++++++++++++++@@@@++++@@@@@@@@++++@@@@@@@@@@@@....@@@@",
"++++OOOO++++++++++++++++@@@@++++@@@@@@@@++++@@@@@@@@@@@@....@@@@",
"++++OOOO++++++++++++++++@@@@++++@@@@@@@@++++@@@@@@@@@@@@....@@@@",
"@@@@....++++ooooXXXXOOOO@@@@@@@@@@@@@@@@OOOO@@@@@@@@@@@@....@@@@",
"@@@@....++++ooooXXXXOOOO@@@@@@@@@@@@@@@@OOOO@@@@@@@@@@@@....@@@@",
"@@@@....++++ooooXXXXOOOO@@@@@@@@@@@@@@@@OOOO@@@@@@@@@@@@....@@@@",
"@@@@....++++ooooXXXXOOOO@@@@@@@@@@@@@@@@OOOO@@@@@@@@@@@@....@@@@",
"@@@@....++++ooooooooOOOO@@@@@@@@@@@@@@@@OOOO@@@@@@@@++++    @@@@",
"@@@@....++++ooooooooOOOO@@@@@@@@@@@@@@@@OOOO@@@@@@@@++++    @@@@",
"@@@@....++++ooooooooOOOO@@@@@@@@@@@@@@@@OOOO@@@@@@@@++++    @@@@",
"@@@@....++++ooooooooOOOO@@@@@@@@@@@@@@@@OOOO@@@@@@@@++++    @@@@",
"@@@@    @@@@OOOOOOOO++++@@@@@@@@++++++++++++@@@@@@@@++++OOOO++++",
"@@@@    @@@@OOOOOOOO++++@@@@@@@@++++++++++++@@@@@@@@++++OOOO++++",
"@@@@    @@@@OOOOOOOO++++@@@@@@@@++++++++++++@@@@@@@@++++OOOO++++",
"@@@@    @@@@OOOOOOOO++++@@@@@@@@++++++++++++@@@@@@@@++++OOOO++++",
"++++OOOOOOOO++++@@@@++++@@@@@@@@++++++++++++@@@@++++OOOO....@@@@",
"++++OOOOOOOO++++@@@@++++@@@@@@@@++++++++++++@@@@++++OOOO....@@@@",
"++++OOOOOOOO++++@@@@++++@@@@@@@@++++++++++++@@@@++++OOOO....@@@@",
"++++OOOOOOOO++++@@@@++++@@@@@@@@++++++++++++@@@@++++OOOO....@@@@",
"@@@@........OOOO@@@@OOOO@@@@@@@@++++++++OOOO@@@@OOOO........@@@@",
"@@@@........OOOO@@@@OOOO@@@@@@@@++++++++OOOO@@@@OOOO........@@@@",
"@@@@........OOOO@@@@OOOO@@@@@@@@++++++++OOOO@@@@OOOO........@@@@",
"@@@@........OOOO@@@@OOOO@@@@@@@@++++++++OOOO@@@@OOOO........@@@@",
"@@@@............OOOOOOOO++++++++++++++++OOOOOOOO............@@@@",
"@@@@............OOOOOOOO++++++++++++++++OOOOOOOO............@@@@",
"@@@@............OOOOOOOO++++++++++++++++OOOOOOOO............@@@@",
"@@@@............OOOOOOOO++++++++++++++++OOOOOOOO............@@@@",
"++++    ........        OOOO....    OOOO        ........    ++++",
"++++    ........        OOOO....    OOOO        ........    ++++",
"++++    ........        OOOO....    OOOO        ........    ++++",
"++++    ........        OOOO....    OOOO        ........    ++++",
"OOOO++++@@@@@@@@@@@@++++@@@@@@@@@@@@++++@@@@@@@@@@@@++++@@@@OOOO",
"OOOO++++@@@@@@@@@@@@++++@@@@@@@@@@@@++++@@@@@@@@@@@@++++@@@@OOOO",
"OOOO++++@@@@@@@@@@@@++++@@@@@@@@@@@@++++@@@@@@@@@@@@++++@@@@OOOO",
"OOOO++++@@@@@@@@@@@@++++@@@@@@@@@@@@++++@@@@@@@@@@@@++++@@@@OOOO"
};
