/* XPM */
static char *floor[] = {
/* columns rows colors chars-per-pixel */
"64 64 7 1 ",
"  c gray14",
". c #2D2D2D",
"X c #383737",
"o c #414141",
"O c #4B4C4F",
"+ c #585858",
"@ c gray43",
/* pixels */
"++++@@@@@@@@@@@@@@@@@@@@@@@@@@@@@@@@@@@@@@@@@@@@++++++++oooo    ",
"++++@@@@@@@@@@@@@@@@@@@@@@@@@@@@@@@@@@@@@@@@@@@@++++++++oooo    ",
"++++@@@@@@@@@@@@@@@@@@@@@@@@@@@@@@@@@@@@@@@@@@@@++++++++oooo    ",
"++++@@@@@@@@@@@@@@@@@@@@@@@@@@@@@@@@@@@@@@@@@@@@++++++++oooo    ",
"@@@@++++++++++++++++++++++++++++OOOO++++++++++++++++ooooXXXX    ",
"@@@@++++++++++++++++++++++++++++OOOO++++++++++++++++ooooXXXX    ",
"@@@@++++++++++++++++++++++++++++OOOO++++++++++++++++ooooXXXX    ",
"@@@@++++++++++++++++++++++++++++OOOO++++++++++++++++ooooXXXX    ",
"@@@@++++++++++++++++OOOOOOOO++++++++++++++++++++OOOOoooooooo    ",
"@@@@++++++++++++++++OOOOOOOO++++++++++++++++++++OOOOoooooooo    ",
"@@@@++++++++++++++++OOOOOOOO++++++++++++++++++++OOOOoooooooo    ",
"@@@@++++++++++++++++OOOOOOOO++++++++++++++++++++OOOOoooooooo    ",
"@@@@ooooOOOO++++OOOOoooooooo++++++++OOOOOOOO++++ooooOOOOoooo    ",
"@@@@ooooOOOO++++OOOOoooooooo++++++++OOOOOOOO++++ooooOOOOoooo    ",
"@@@@ooooOOOO++++OOOOoooooooo++++++++OOOOOOOO++++ooooOOOOoooo    ",
"@@@@ooooOOOO++++OOOOoooooooo++++++++OOOOOOOO++++ooooOOOOoooo    ",
"@@@@XXXX++++ooooXXXXooooOOOOooooOOOOOOOOooooooooOOOOXXXXoooo    ",
"@@@@XXXX++++ooooXXXXooooOOOOooooOOOOOOOOooooooooOOOOXXXXoooo    ",
"@@@@XXXX++++ooooXXXXooooOOOOooooOOOOOOOOooooooooOOOOXXXXoooo    ",
"@@@@XXXX++++ooooXXXXooooOOOOooooOOOOOOOOooooooooOOOOXXXXoooo    ",
"++++OOOOXXXXXXXXooooXXXXooooooooOOOOooooXXXXooooooooXXXX....    ",
"++++OOOOXXXXXXXXooooXXXXooooooooOOOOooooXXXXooooooooXXXX....    ",
"++++OOOOXXXXXXXXooooXXXXooooooooOOOOooooXXXXooooooooXXXX....    ",
"++++OOOOXXXXXXXXooooXXXXooooooooOOOOooooXXXXooooooooXXXX....    ",
"XXXXXXXXXXXXXXXXXXXXXXXXXXXXXXXXXXXXXXXX....XXXXXXXX....XXXX    ",
"XXXXXXXXXXXXXXXXXXXXXXXXXXXXXXXXXXXXXXXX....XXXXXXXX....XXXX    ",
"XXXXXXXXXXXXXXXXXXXXXXXXXXXXXXXXXXXXXXXX....XXXXXXXX....XXXX    ",
"XXXXXXXXXXXXXXXXXXXXXXXXXXXXXXXXXXXXXXXX....XXXXXXXX....XXXX    ",
"........        ........            ............            ....",
"........        ........            ............            ....",
"........        ........            ............            ....",
"........        ........            ............            ....",
"@@@@@@@@++++++++@@@@@@@@++++    ++++@@@@@@@@@@@@@@@@@@@@@@@@@@@@",
"@@@@@@@@++++++++@@@@@@@@++++    ++++@@@@@@@@@@@@@@@@@@@@@@@@@@@@",
"@@@@@@@@++++++++@@@@@@@@++++    ++++@@@@@@@@@@@@@@@@@@@@@@@@@@@@",
"@@@@@@@@++++++++@@@@@@@@++++    ++++@@@@@@@@@@@@@@@@@@@@@@@@@@@@",
"++++++++OOOO++++++++ooooXXXX    @@@@++++++++++++++++OOOO++++++++",
"++++++++OOOO++++++++ooooXXXX    @@@@++++++++++++++++OOOO++++++++",
"++++++++OOOO++++++++ooooXXXX    @@@@++++++++++++++++OOOO++++++++",
"++++++++OOOO++++++++ooooXXXX    @@@@++++++++++++++++OOOO++++++++",
"++++OOOOOOOO++++++++OOOOoooo    @@@@++++++++++++oooo++++++++++++",
"++++OOOOOOOO++++++++OOOOoooo    @@@@++++++++++++oooo++++++++++++",
"++++OOOOOOOO++++++++OOOOoooo    @@@@++++++++++++oooo++++++++++++",
"++++OOOOOOOO++++++++OOOOoooo    @@@@++++++++++++oooo++++++++++++",
"++++OOOOOOOOOOOO++++++++XXXX    @@@@++++OOOO++++OOOOoooo++++++++",
"++++OOOOOOOOOOOO++++++++XXXX    @@@@++++OOOO++++OOOOoooo++++++++",
"++++OOOOOOOOOOOO++++++++XXXX    @@@@++++OOOO++++OOOOoooo++++++++",
"++++OOOOOOOOOOOO++++++++XXXX    @@@@++++OOOO++++OOOOoooo++++++++",
"OOOOXXXXooooooooOOOO++++XXXX    ++++OOOOoooo++++++++OOOO++++++++",
"OOOOXXXXooooooooOOOO++++XXXX    ++++OOOOoooo++++++++OOOO++++++++",
"OOOOXXXXooooooooOOOO++++XXXX    ++++OOOOoooo++++++++OOOO++++++++",
"OOOOXXXXooooooooOOOO++++XXXX    ++++OOOOoooo++++++++OOOO++++++++",
"XXXXXXXXXXXXooooooooooooXXXX    ++++ooooXXXX++++OOOOooooOOOOoooo",
"XXXXXXXXXXXXooooooooooooXXXX    ++++ooooXXXX++++OOOOooooOOOOoooo",
"XXXXXXXXXXXXooooooooooooXXXX    ++++ooooXXXX++++OOOOooooOOOOoooo",
"XXXXXXXXXXXXooooooooooooXXXX    ++++ooooXXXX++++OOOOooooOOOOoooo",
"XXXXXXXXXXXXXXXXXXXXXXXXXXXX    XXXXXXXXXXXXXXXXXXXXXXXXXXXXXXXX",
"XXXXXXXXXXXXXXXXXXXXXXXXXXXX    XXXXXXXXXXXXXXXXXXXXXXXXXXXXXXXX",
"XXXXXXXXXXXXXXXXXXXXXXXXXXXX    XXXXXXXXXXXXXXXXXXXXXXXXXXXXXXXX",
"XXXXXXXXXXXXXXXXXXXXXXXXXXXX    XXXXXXXXXXXXXXXXXXXXXXXXXXXXXXXX",
"........................                ........................",
"........................                ........................",
"........................                ........................",
"........................                ........................"
};
