/* XPM */
static char *player_1R[] = {
/* columns rows colors chars-per-pixel */
"64 64 12 1 ",
"  c black",
". c #0C0C0C",
"X c gray12",
"o c #3C1717",
"O c gray16",
"+ c #353434",
"@ c #3F3F3F",
"# c #471B1B",
"$ c #4A4B4E",
"% c gray34",
"& c gray43",
"* c white",
/* pixels */
"%%%%&&&&&&&&&&&&&&&&&&&&&&&&&&&&&&&&&&&&&&&&&&&&%%%%%%%%@@@@XXXX",
"%%%%&&&&&&&&&&&&&&&&&&&&&&&&&&&&&&&&&&&&&&&&&&&&%%%%%%%%@@@@XXXX",
"%%%%&&&&&&&&&&&&&&&&&&&&&&&&&&&&&&&&&&&&&&&&&&&&%%%%%%%%@@@@XXXX",
"%%%%&&&&&&&&&&&&&&&&&&&&&&&&&&&&&&&&&&&&&&&&&&&&%%%%%%%%@@@@XXXX",
"&&&&%%%%%%%%%%%%%%%%%%%%%%%%%%%%$$$$%%%%%%%%%%%%%%%%@@@@++++XXXX",
"&&&&%%%%%%%%%%%%%%%%%%%%%%%%%%%%$$$$%%%%%%%%%%%%%%%%@@@@++++XXXX",
"&&&&%%%%%%%%%%%%%%%%%%%%%%%%%%%%$$$$%%%%%%%%%%%%%%%%@@@@++++XXXX",
"&&&&%%%%%%%%%%%%%%%%%%%%%%%%%%%%$$$$%%%%%%%%%%%%%%%%@@@@++++XXXX",
"&&&&%%%%%%%%%%%%%%%%$$$$$$$$%%%%%%%%%%%%%%%%%%%%$$$$@@@@@@@@XXXX",
"&&&&%%%%%%%%%%%%%%%%$$$$$$$$%%%%%%%%%%%%%%%%%%%%$$$$@@@@@@@@XXXX",
"&&&&%%%%%%%%%%%%%%%%$$$$$$$$%%        %%%%%%%%%%$$$$@@@@@@@@XXXX",
"&&&&%%%%%%%%%%%%%%%%$$$$$$$$%%        %%%%%%%%%%$$$$@@@@@@@@XXXX",
"&&&&@@@@$$$$%%%%$$$$@@@@                    %%%%@@@@$$$$@@@@XXXX",
"&&&&@@@@$$$$%%%%$$$$@@@@                    %%%%@@@@$$$$@@@@XXXX",
"&&&&@@@@$$$$%%%%$$$$                            @@@@$$$$@@@@XXXX",
"&&&&@@@@$$$$%%%%$$$$                            @@@@$$$$@@@@XXXX",
"&&&&++++%%%%@@@@                                    ++++@@@@XXXX",
"&&&&++++%%%%@@@@                                    ++++@@@@XXXX",
"&&&&++++%%%%@@@@++++@@@@$$$$        **  @@@@@@@@$$$$++++@@@@XXXX",
"&&&&++++%%%%@@@@++++@@@@$$$$        **  @@@@@@@@$$$$++++@@@@XXXX",
"%%%%$$$$++++++++@@@@++++@@@@        **  ++++@@@@@@@@++++OOOOXXXX",
"%%%%$$$$++++++++@@@@++++@@@@        **  ++++@@@@@@@@++++OOOOXXXX",
"%%%%$$$$++++++++@@@@++++@@@@            ++++@@@@@@@@++++OOOOXXXX",
"%%%%$$$$++++++++@@@@++++@@@@            ++++@@@@@@@@++++OOOOXXXX",
"++++++++++++++++++++++++++++          ++OOOO++++++++OOOO++++XXXX",
"++++++++++++++++++++++++++++          ++OOOO++++++++OOOO++++XXXX",
"++++++++++++++++++++++++++oooooo      ++OOOO++++++++OOOO++++XXXX",
"++++++++++++++++++++++++++oooooo      ++OOOO++++++++OOOO++++XXXX",
"OOOOOOOOXXXXXXXXOOOOOOOOoooooooo      ooOOOOOOOOXXXXXXXXXXXXOOOO",
"OOOOOOOOXXXXXXXXOOOOOOOOoooooooo      ooOOOOOOOOXXXXXXXXXXXXOOOO",
"OOOOOOOOXXXXXXXXOOOOOOOOooooooooooooooooOOOOOOOOXXXXXXXXXXXXOOOO",
"OOOOOOOOXXXXXXXXOOOOOOOOooooooooooooooooOOOOOOOOXXXXXXXXXXXXOOOO",
"&&&&&&&&%%%%%%%%&&&&&&oooooooo####oooooo&&&&&&&&&&&&&&&&&&&&&&&&",
"&&&&&&&&%%%%%%%%&&&&&&oooooooo####oooooo&&&&&&&&&&&&&&&&&&&&&&&&",
"&&&&&&&&%%%%%%%%&&&&&&oooooooo####oo    oo&&&&&&&&&&&&&&&&&&&&&&",
"&&&&&&&&%%%%%%%%&&&&&&oooooooo####oo    oo&&&&&&&&&&&&&&&&&&&&&&",
"%%%%%%%%$$$$%%%%%%%%@@oooooooooooooo    oo%%%%%%%%%%$$$$%%%%%%%%",
"%%%%%%%%$$$$%%%%%%%%@@oooooooooooooo    oo%%%%%%%%%%$$$$%%%%%%%%",
"%%%%%%%%$$$$%%%%%%%%oooooooooooooo      oo%%......%%$$$$%%%%%%%%",
"%%%%%%%%$$$$%%%%%%%%oooooooooooooo      oo%%......%%$$$$%%%%%%%%",
"%%%%$$$$$$$$%%%%%%%%oooooooooooooo        oo......@@%%%%%%%%%%%%",
"%%%%$$$$$$$$%%%%%%%%oooooooooooooo        oo......@@%%%%%%%%%%%%",
"%%%%$$$$$$$$%%%%%%%%oooooooooooooo        oo..%%@@@@%%%%%%%%%%%%",
"%%%%$$$$$$$$%%%%%%%%oooooooooooooo        oo..%%@@@@%%%%%%%%%%%%",
"%%%%$$$$$$$$$$$$%%%%oooooooooooo          oo%%%%$$$$@@@@%%%%%%%%",
"%%%%$$$$$$$$$$$$%%%%oooooooooooo          oo%%%%$$$$@@@@%%%%%%%%",
"%%%%$$$$$$$$$$$$%%oooooooooooooo          oo%%%%$$$$@@@@%%%%%%%%",
"%%%%$$$$$$$$$$$$%%oooooooooooooo          oo%%%%$$$$@@@@%%%%%%%%",
"$$$$++++@@@@******oooooooooooooo            oo%%%%%%$$$$%%%%%%%%",
"$$$$++++@@@@******oooooooooooooo            oo%%%%%%$$$$%%%%%%%%",
"$$$$++++**********oooooooooooooo            oo%%%%%%$$$$%%%%%%%%",
"$$$$++++**********oooooooooooooo            oo%%%%%%$$$$%%%%%%%%",
"++++++++******@@@@oooooooooooo              oo%%$$$$@@@@$$$$@@@@",
"++++++++******@@@@oooooooooooo              oo%%$$$$@@@@$$$$@@@@",
"++++++++++++@@@@@@oooooooooooo              oo%%$$$$@@@@$$$$@@@@",
"++++++++++++@@@@@@oooooooooooo              oo%%$$$$@@@@$$$$@@@@",
"++++++++++++++++++ooooooooooooXX++++      oooo++++++++++++++++++",
"++++++++++++++++++ooooooooooooXX++++      oooo++++++++++++++++++",
"++++++++++++++++++++ooooooooXXXX++++++    ++++++++++++++++++++++",
"++++++++++++++++++++ooooooooXXXX++++++    ++++++++++++++++++++++",
"OOOOOOOOOOOOOOOOOOOOOO  XXXXXXXXXXXXXXXX  OOOOOOOOOOOOOOOOOOOOOO",
"OOOOOOOOOOOOOOOOOOOOOO  XXXXXXXXXXXXXXXX  OOOOOOOOOOOOOOOOOOOOOO",
"OOOOOOOOOOOOOOOOOOOOOO  XXXXXXXXXXXXXXXX  OOOOOOOOOOOOOOOOOOOOOO",
"OOOOOOOOOOOOOOOOOOOOOO  XXXXXXXXXXXXXXXX  OOOOOOOOOOOOOOOOOOOOOO"
};
