/* XPM */
static char *Player_1R[] = {
/* columns rows colors chars-per-pixel */
"64 64 5 1 ",
"  c black",
". c #1B1B1B",
"X c #2D2D2D",
"o c white",
"O c None",
/* pixels */
"OOOOOOOOOOOOOOOOOOOOOOOOOOOOOOOOOOOOOOOOOOOOOOOOOOOOOOOOOOOOOOOO",
"OOOOOOOOOOOOOOOOOOOOOOOOOOOOOOOOOOOOOOOOOOOOOOOOOOOOOOOOOOOOOOOO",
"OOOOOOOOOOOOOOOOOOOOOOOOOOOOOOOOOOOOOOOOOOOOOOOOOOOOOOOOOOOOOOOO",
"OOOOOOOOOOOOOOOOOOOOOOOOOOOOOOOOOOOOOOOOOOOOOOOOOOOOOOOOOOOOOOOO",
"OOOOOOOOOOOOOOOOOOOOOOOOOOOOOOOOOOOOOOOOOOOOOOOOOOOOOOOOOOOOOOOO",
"OOOOOOOOOOOOOOOOOOOOOOOOOOOOOOOOOOOOOOOOOOOOOOOOOOOOOOOOOOOOOOOO",
"OOOOOOOOOOOOOOOOOOOOOOOOOOOOOOOOOOOOOOOOOOOOOOOOOOOOOOOOOOOOOOOO",
"OOOOOOOOOOOOOOOOOOOOOOOOOOOOOOOOOOOOOOOOOOOOOOOOOOOOOOOOOOOOOOOO",
"OOOOOOOOOOOOOOOOOOOOOOOOOOOOOOOOOOOOOOOOOOOOOOOOOOOOOOOOOOOOOOOO",
"OOOOOOOOOOOOOOOOOOOOOOOOOOOOOOOOOOOOOOOOOOOOOOOOOOOOOOOOOOOOOOOO",
"OOOOOOOOOOOOOOOOOOOOOOOOOOOOOO        OOOOOOOOOOOOOOOOOOOOOOOOOO",
"OOOOOOOOOOOOOOOOOOOOOOOOOOOOOO        OOOOOOOOOOOOOOOOOOOOOOOOOO",
"OOOOOOOOOOOOOOOOOOOOOOOO                    OOOOOOOOOOOOOOOOOOOO",
"OOOOOOOOOOOOOOOOOOOOOOOO                    OOOOOOOOOOOOOOOOOOOO",
"OOOOOOOOOOOOOOOOOOOO                            OOOOOOOOOOOOOOOO",
"OOOOOOOOOOOOOOOOOOOO                            OOOOOOOOOOOOOOOO",
"OOOOOOOOOOOOOOOO                                    OOOOOOOOOOOO",
"OOOOOOOOOOOOOOOO                                    OOOOOOOOOOOO",
"OOOOOOOOOOOOOOOOOOOOOOOOOOOO        oo  OOOOOOOOOOOOOOOOOOOOOOOO",
"OOOOOOOOOOOOOOOOOOOOOOOOOOOO        oo  OOOOOOOOOOOOOOOOOOOOOOOO",
"OOOOOOOOOOOOOOOOOOOOOOOOOOOO        oo  OOOOOOOOOOOOOOOOOOOOOOOO",
"OOOOOOOOOOOOOOOOOOOOOOOOOOOO        oo  OOOOOOOOOOOOOOOOOOOOOOOO",
"OOOOOOOOOOOOOOOOOOOOOOOOOOOO            OOOOOOOOOOOOOOOOOOOOOOOO",
"OOOOOOOOOOOOOOOOOOOOOOOOOOOO            OOOOOOOOOOOOOOOOOOOOOOOO",
"OOOOOOOOOOOOOOOOOOOOOOOOOOOO          OOOOOOOOOOOOOOOOOOOOOOOOOO",
"OOOOOOOOOOOOOOOOOOOOOOOOOOOO          OOOOOOOOOOOOOOOOOOOOOOOOOO",
"OOOOOOOOOOOOOOOOOOOOOOOOOOXXXXXX      OOOOOOOOOOOOOOOOOOOOOOOOOO",
"OOOOOOOOOOOOOOOOOOOOOOOOOOXXXXXX      OOOOOOOOOOOOOOOOOOOOOOOOOO",
"OOOOOOOOOOOOOOOOOOOOOOOOXXXXXXXX      XXOOOOOOOOOOOOOOOOOOOOOOOO",
"OOOOOOOOOOOOOOOOOOOOOOOOXXXXXXXX      XXOOOOOOOOOOOOOOOOOOOOOOOO",
"OOOOOOOOOOOOOOOOOOOOOOOOXXXXXXXXXXXXXXXXOOOOOOOOOOOOOOOOOOOOOOOO",
"OOOOOOOOOOOOOOOOOOOOOOOOXXXXXXXXXXXXXXXXOOOOOOOOOOOOOOOOOOOOOOOO",
"OOOOOOOOOOOOOOOOOOOOOOXXXXXXXXXXXXXXXXXXOOOOOOOOOOOOOOOOOOOOOOOO",
"OOOOOOOOOOOOOOOOOOOOOOXXXXXXXXXXXXXXXXXXOOOOOOOOOOOOOOOOOOOOOOOO",
"OOOOOOOOOOOOOOOOOOOOOOXXXXXXXXXXXXXX    XXOOOOOOOOOOOOOOOOOOOOOO",
"OOOOOOOOOOOOOOOOOOOOOOXXXXXXXXXXXXXX    XXOOOOOOOOOOOOOOOOOOOOOO",
"OOOOOOOOOOOOOOOOOOOOOOXXXXXXXXXXXXXX    XXOOOOOOOOOOOOOOOOOOOOOO",
"OOOOOOOOOOOOOOOOOOOOOOXXXXXXXXXXXXXX    XXOOOOOOOOOOOOOOOOOOOOOO",
"OOOOOOOOOOOOOOOOOOOOXXXXXXXXXXXXXX      XXOO......OOOOOOOOOOOOOO",
"OOOOOOOOOOOOOOOOOOOOXXXXXXXXXXXXXX      XXOO......OOOOOOOOOOOOOO",
"OOOOOOOOOOOOOOOOOOOOXXXXXXXXXXXXXX        XX......OOOOOOOOOOOOOO",
"OOOOOOOOOOOOOOOOOOOOXXXXXXXXXXXXXX        XX......OOOOOOOOOOOOOO",
"OOOOOOOOOOOOOOOOOOOOXXXXXXXXXXXXXX        XX..OOOOOOOOOOOOOOOOOO",
"OOOOOOOOOOOOOOOOOOOOXXXXXXXXXXXXXX        XX..OOOOOOOOOOOOOOOOOO",
"OOOOOOOOOOOOOOOOOOOOXXXXXXXXXXXX          XXOOOOOOOOOOOOOOOOOOOO",
"OOOOOOOOOOOOOOOOOOOOXXXXXXXXXXXX          XXOOOOOOOOOOOOOOOOOOOO",
"OOOOOOOOOOOOOOOOOOXXXXXXXXXXXXXX          XXOOOOOOOOOOOOOOOOOOOO",
"OOOOOOOOOOOOOOOOOOXXXXXXXXXXXXXX          XXOOOOOOOOOOOOOOOOOOOO",
"OOOOOOOOOOOOooooooXXXXXXXXXXXXXX            XXOOOOOOOOOOOOOOOOOO",
"OOOOOOOOOOOOooooooXXXXXXXXXXXXXX            XXOOOOOOOOOOOOOOOOOO",
"OOOOOOOOooooooooooXXXXXXXXXXXXXX            XXOOOOOOOOOOOOOOOOOO",
"OOOOOOOOooooooooooXXXXXXXXXXXXXX            XXOOOOOOOOOOOOOOOOOO",
"OOOOOOOOooooooOOOOXXXXXXXXXXXX              XXOOOOOOOOOOOOOOOOOO",
"OOOOOOOOooooooOOOOXXXXXXXXXXXX              XXOOOOOOOOOOOOOOOOOO",
"OOOOOOOOOOOOOOOOOOXXXXXXXXXXXX              XXOOOOOOOOOOOOOOOOOO",
"OOOOOOOOOOOOOOOOOOXXXXXXXXXXXX              XXOOOOOOOOOOOOOOOOOO",
"OOOOOOOOOOOOOOOOOOXXXXXXXXXXXXOOOOOO      XXXXOOOOOOOOOOOOOOOOOO",
"OOOOOOOOOOOOOOOOOOXXXXXXXXXXXXOOOOOO      XXXXOOOOOOOOOOOOOOOOOO",
"OOOOOOOOOOOOOOOOOOOOXXXXXXXXOOOOOOOOOO    OOOOOOOOOOOOOOOOOOOOOO",
"OOOOOOOOOOOOOOOOOOOOXXXXXXXXOOOOOOOOOO    OOOOOOOOOOOOOOOOOOOOOO",
"OOOOOOOOOOOOOOOOOOOOOO  OOOOOOOOOOOOOOOO  OOOOOOOOOOOOOOOOOOOOOO",
"OOOOOOOOOOOOOOOOOOOOOO  OOOOOOOOOOOOOOOO  OOOOOOOOOOOOOOOOOOOOOO",
"OOOOOOOOOOOOOOOOOOOOOO  OOOOOOOOOOOOOOOO  OOOOOOOOOOOOOOOOOOOOOO",
"OOOOOOOOOOOOOOOOOOOOOO  OOOOOOOOOOOOOOOO  OOOOOOOOOOOOOOOOOOOOOO"
};
