/* XPM */
static char *player_1L[] = {
/* columns rows colors chars-per-pixel */
"64 64 12 1 ",
"  c black",
". c gray8",
"X c #3C1717",
"o c gray14",
"O c #2D2D2D",
"+ c #383737",
"@ c #471B1B",
"# c #414141",
"$ c #4B4C4F",
"% c #585858",
"& c gray43",
"* c white",
/* pixels */
"%%%%&&&&&&&&&&&&&&&&&&&&&&&&&&&&&&&&&&&&&&&&&&&&%%%%%%%%####oooo",
"%%%%&&&&&&&&&&&&&&&&&&&&&&&&&&&&&&&&&&&&&&&&&&&&%%%%%%%%####oooo",
"%%%%&&&&&&&&&&&&&&&&&&&&&&&&&&&&&&&&&&&&&&&&&&&&%%%%%%%%####oooo",
"%%%%&&&&&&&&&&&&&&&&&&&&&&&&&&&&&&&&&&&&&&&&&&&&%%%%%%%%####oooo",
"&&&&%%%%%%%%%%%%%%%%%%%%%%%%%%%%$$$$%%%%%%%%%%%%%%%%####++++oooo",
"&&&&%%%%%%%%%%%%%%%%%%%%%%%%%%%%$$$$%%%%%%%%%%%%%%%%####++++oooo",
"&&&&%%%%%%%%%%%%%%%%%%%%%%%%%%%%$$$$%%%%%%%%%%%%%%%%####++++oooo",
"&&&&%%%%%%%%%%%%%%%%%%%%%%%%%%%%$$$$%%%%%%%%%%%%%%%%####++++oooo",
"&&&&%%%%%%%%%%%%%%%%$$$$$$$$%%%%%%%%%%%%%%%%%%%%$$$$########oooo",
"&&&&%%%%%%%%%%%%%%%%$$$$$$$$%%%%%%%%%%%%%%%%%%%%$$$$########oooo",
"&&&&%%%%%%%%%%%%%%%%$$$$$$        %%%%%%%%%%%%%%$$$$########oooo",
"&&&&%%%%%%%%%%%%%%%%$$$$$$        %%%%%%%%%%%%%%$$$$########oooo",
"&&&&####$$$$%%%%$$$$                    $$$$%%%%####$$$$####oooo",
"&&&&####$$$$%%%%$$$$                    $$$$%%%%####$$$$####oooo",
"&&&&####$$$$%%%%                            %%%%####$$$$####oooo",
"&&&&####$$$$%%%%                            %%%%####$$$$####oooo",
"&&&&++++%%%%                                    $$$$++++####oooo",
"&&&&++++%%%%                                    $$$$++++####oooo",
"&&&&++++%%%%####++++####  **        $$$$########$$$$++++####oooo",
"&&&&++++%%%%####++++####  **        $$$$########$$$$++++####oooo",
"%%%%$$$$++++++++####++++  **        ####++++########++++OOOOoooo",
"%%%%$$$$++++++++####++++  **        ####++++########++++OOOOoooo",
"%%%%$$$$++++++++####++++            ####++++########++++OOOOoooo",
"%%%%$$$$++++++++####++++            ####++++########++++OOOOoooo",
"++++++++++++++++++++++++++          ++++OOOO++++++++OOOO++++oooo",
"++++++++++++++++++++++++++          ++++OOOO++++++++OOOO++++oooo",
"++++++++++++++++++++++++++      XXXXXX++OOOO++++++++OOOO++++oooo",
"++++++++++++++++++++++++++      XXXXXX++OOOO++++++++OOOO++++oooo",
"OOOOOOOOooooooooOOOOOOOOXX      XXXXXXXXOOOOOOOOooooooooooooOOOO",
"OOOOOOOOooooooooOOOOOOOOXX      XXXXXXXXOOOOOOOOooooooooooooOOOO",
"OOOOOOOOooooooooOOOOOOOOXXXXXXXXXXXXXXXXOOOOOOOOooooooooooooOOOO",
"OOOOOOOOooooooooOOOOOOOOXXXXXXXXXXXXXXXXOOOOOOOOooooooooooooOOOO",
"&&&&&&&&%%%%%%%%&&&&&&&&XXXXXX@@@@XXXXXXXX&&&&&&&&&&&&&&&&&&&&&&",
"&&&&&&&&%%%%%%%%&&&&&&&&XXXXXX@@@@XXXXXXXX&&&&&&&&&&&&&&&&&&&&&&",
"&&&&&&&&%%%%%%%%&&&&&&XX    XX@@@@XXXXXXXX&&&&&&&&&&&&&&&&&&&&&&",
"&&&&&&&&%%%%%%%%&&&&&&XX    XX@@@@XXXXXXXX&&&&&&&&&&&&&&&&&&&&&&",
"%%%%%%%%$$$$%%%%%%%%##XX    XXXXXXXXXXXXXX%%%%%%%%%%$$$$%%%%%%%%",
"%%%%%%%%$$$$%%%%%%%%##XX    XXXXXXXXXXXXXX%%%%%%%%%%$$$$%%%%%%%%",
"%%%%%%%%$$$$%%......##XX      XXXXXXXXXXXXXX%%%%%%%%$$$$%%%%%%%%",
"%%%%%%%%$$$$%%......##XX      XXXXXXXXXXXXXX%%%%%%%%$$$$%%%%%%%%",
"%%%%$$$$$$$$%%......XX        XXXXXXXXXXXXXX%%%%####%%%%%%%%%%%%",
"%%%%$$$$$$$$%%......XX        XXXXXXXXXXXXXX%%%%####%%%%%%%%%%%%",
"%%%%$$$$$$$$%%%%%%..XX        XXXXXXXXXXXXXX%%%%####%%%%%%%%%%%%",
"%%%%$$$$$$$$%%%%%%..XX        XXXXXXXXXXXXXX%%%%####%%%%%%%%%%%%",
"%%%%$$$$$$$$$$$$%%%%XX          XXXXXXXXXXXX%%%%$$$$####%%%%%%%%",
"%%%%$$$$$$$$$$$$%%%%XX          XXXXXXXXXXXX%%%%$$$$####%%%%%%%%",
"%%%%$$$$$$$$$$$$%%%%XX          XXXXXXXXXXXXXX%%$$$$####%%%%%%%%",
"%%%%$$$$$$$$$$$$%%%%XX          XXXXXXXXXXXXXX%%$$$$####%%%%%%%%",
"$$$$++++########$$XX            XXXXXXXXXXXXXX******$$$$%%%%%%%%",
"$$$$++++########$$XX            XXXXXXXXXXXXXX******$$$$%%%%%%%%",
"$$$$++++########$$XX            XXXXXXXXXXXXXX**********%%%%%%%%",
"$$$$++++########$$XX            XXXXXXXXXXXXXX**********%%%%%%%%",
"++++++++++++######XX              XXXXXXXXXXXX%%$$******$$$$####",
"++++++++++++######XX              XXXXXXXXXXXX%%$$******$$$$####",
"++++++++++++######XX              XXXXXXXXXXXX%%$$$$####$$$$####",
"++++++++++++######XX              XXXXXXXXXXXX%%$$$$####$$$$####",
"++++++++++++++++++XXXX      oooo++XXXXXXXXXXXX++++++++++++++++++",
"++++++++++++++++++XXXX      oooo++XXXXXXXXXXXX++++++++++++++++++",
"++++++++++++++++++++++    ++oooo++++XXXXXXXX++++++++++++++++++++",
"++++++++++++++++++++++    ++oooo++++XXXXXXXX++++++++++++++++++++",
"OOOOOOOOOOOOOOOOOOOOOO  oooooooooooooooo  OOOOOOOOOOOOOOOOOOOOOO",
"OOOOOOOOOOOOOOOOOOOOOO  oooooooooooooooo  OOOOOOOOOOOOOOOOOOOOOO",
"OOOOOOOOOOOOOOOOOOOOOO  oooooooooooooooo  OOOOOOOOOOOOOOOOOOOOOO",
"OOOOOOOOOOOOOOOOOOOOOO  oooooooooooooooo  OOOOOOOOOOOOOOOOOOOOOO"
};
