/* XPM */
static char *floor[] = {
/* columns rows colors chars-per-pixel */
"64 64 6 1 ",
"  c #160F10",
". c #20131C",
"X c #27221C",
"o c #312C36",
"O c #3C3947",
"+ c #4E4B54",
/* pixels */
"ooooXXXXXXXX........    oooo....    XXXXooooOOOOooooXXXX....oooo",
"ooooXXXXXXXX........    oooo....    XXXXooooOOOOooooXXXX....oooo",
"ooooXXXXXXXX........    oooo....    XXXXooooOOOOooooXXXX....oooo",
"ooooXXXXXXXX........    oooo....    XXXXooooOOOOooooXXXX....oooo",
"XXXXooooooooXXXXoooooooo........ooooooooooooOOOOOOOOoooo    ....",
"XXXXooooooooXXXXoooooooo........ooooooooooooOOOOOOOOoooo    ....",
"XXXXooooooooXXXXoooooooo........ooooooooooooOOOOOOOOoooo    ....",
"XXXXooooooooXXXXoooooooo........ooooooooooooOOOOOOOOoooo    ....",
"    ....XXXXXXXXXXXX........XXXXooooooooOOOOOOOOOOOOXXXX....    ",
"    ....XXXXXXXXXXXX........XXXXooooooooOOOOOOOOOOOOXXXX....    ",
"    ....XXXXXXXXXXXX........XXXXooooooooOOOOOOOOOOOOXXXX....    ",
"    ....XXXXXXXXXXXX........XXXXooooooooOOOOOOOOOOOOXXXX....    ",
"....XXXXooooooooooooXXXX....ooooOOOOOOOOOOOO++++XXXX....XXXX    ",
"....XXXXooooooooooooXXXX....ooooOOOOOOOOOOOO++++XXXX....XXXX    ",
"....XXXXooooooooooooXXXX....ooooOOOOOOOOOOOO++++XXXX....XXXX    ",
"....XXXXooooooooooooXXXX....ooooOOOOOOOOOOOO++++XXXX....XXXX    ",
"XXXXooooooooOOOOOOOOOOOOXXXX....oooo++++++++XXXX........XXXX    ",
"XXXXooooooooOOOOOOOOOOOOXXXX....oooo++++++++XXXX........XXXX    ",
"XXXXooooooooOOOOOOOOOOOOXXXX....oooo++++++++XXXX........XXXX    ",
"XXXXooooooooOOOOOOOOOOOOXXXX....oooo++++++++XXXX........XXXX    ",
"OOOOOOOOOOOOOOOO++++ooooXXXXXXXX........OOOO....    XXXX        ",
"OOOOOOOOOOOOOOOO++++ooooXXXXXXXX........OOOO....    XXXX        ",
"OOOOOOOOOOOOOOOO++++ooooXXXXXXXX........OOOO....    XXXX        ",
"OOOOOOOOOOOOOOOO++++ooooXXXXXXXX........OOOO....    XXXX        ",
"ooooOOOO++++++++oooo    XXXX....XXXX....XXXX        oooo....XXXX",
"ooooOOOO++++++++oooo    XXXX....XXXX....XXXX        oooo....XXXX",
"ooooOOOO++++++++oooo    XXXX....XXXX....XXXX        oooo....XXXX",
"ooooOOOO++++++++oooo    XXXX....XXXX....XXXX        oooo....XXXX",
"ooooooooXXXX....        XXXXooooooooXXXXXXXXooooOOOO........XXXX",
"ooooooooXXXX....        XXXXooooooooXXXXXXXXooooOOOO........XXXX",
"ooooooooXXXX....        XXXXooooooooXXXXXXXXooooOOOO........XXXX",
"ooooooooXXXX....        XXXXooooooooXXXXXXXXooooOOOO........XXXX",
"ooooooooXXXX........XXXXooooOOOOoooo....    ........XXXX....XXXX",
"ooooooooXXXX........XXXXooooOOOOoooo....    ........XXXX....XXXX",
"ooooooooXXXX........XXXXooooOOOOoooo....    ........XXXX....XXXX",
"ooooooooXXXX........XXXXooooOOOOoooo....    ........XXXX....XXXX",
"XXXXXXXX........XXXX........XXXX....    ....XXXXooooooooXXXX....",
"XXXXXXXX........XXXX........XXXX....    ....XXXXooooooooXXXX....",
"XXXXXXXX........XXXX........XXXX....    ....XXXXooooooooXXXX....",
"XXXXXXXX........XXXX........XXXX....    ....XXXXooooooooXXXX....",
"....oooooooooooo....        ....XXXXOOOOOOOOOOOOOOOOOOOOoooo    ",
"....oooooooooooo....        ....XXXXOOOOOOOOOOOOOOOOOOOOoooo    ",
"....oooooooooooo....        ....XXXXOOOOOOOOOOOOOOOOOOOOoooo    ",
"....oooooooooooo....        ....XXXXOOOOOOOOOOOOOOOOOOOOoooo    ",
"XXXXooooOOOOOOOOooooXXXX....    XXXXoooo++++++++OOOOooooXXXXXXXX",
"XXXXooooOOOOOOOOooooXXXX....    XXXXoooo++++++++OOOOooooXXXXXXXX",
"XXXXooooOOOOOOOOooooXXXX....    XXXXoooo++++++++OOOOooooXXXXXXXX",
"XXXXooooOOOOOOOOooooXXXX....    XXXXoooo++++++++OOOOooooXXXXXXXX",
"ooooooooOOOOOOOOOOOOooooXXXX....XXXX....ooooooooXXXX........XXXX",
"ooooooooOOOOOOOOOOOOooooXXXX....XXXX....ooooooooXXXX........XXXX",
"ooooooooOOOOOOOOOOOOooooXXXX....XXXX....ooooooooXXXX........XXXX",
"ooooooooOOOOOOOOOOOOooooXXXX....XXXX....ooooooooXXXX........XXXX",
"OOOOOOOOOOOO++++oooo        XXXXXXXX........oooo............oooo",
"OOOOOOOOOOOO++++oooo        XXXXXXXX........oooo............oooo",
"OOOOOOOOOOOO++++oooo        XXXXXXXX........oooo............oooo",
"OOOOOOOOOOOO++++oooo        XXXXXXXX........oooo............oooo",
"OOOO++++++++oooo....        ....    XXXX....XXXX........XXXXOOOO",
"OOOO++++++++oooo....        ....    XXXX....XXXX........XXXXOOOO",
"OOOO++++++++oooo....        ....    XXXX....XXXX........XXXXOOOO",
"OOOO++++++++oooo....        ....    XXXX....XXXX........XXXXOOOO",
"XXXXXXXXoooo....            XXXX....    XXXXXXXXXXXXXXXXXXXXoooo",
"XXXXXXXXoooo....            XXXX....    XXXXXXXXXXXXXXXXXXXXoooo",
"XXXXXXXXoooo....            XXXX....    XXXXXXXXXXXXXXXXXXXXoooo",
"XXXXXXXXoooo....            XXXX....    XXXXXXXXXXXXXXXXXXXXoooo"
};
